<svg width="311" height="286" viewBox="0 0 311 286" fill="none" xmlns="http://www.w3.org/2000/svg">
<path d="M239.82 73.891C237.851 70.2921 235.68 66.7905 233.316 63.4005C205.72 24.5331 131.71 3.37484 95.0497 43.5521C86.3139 53.1217 83.2697 64.7161 77.3859 75.6756C64.0125 100.672 39.0203 115.584 23.3467 138.71C11.2009 156.637 12.8067 179.614 19.5957 198.993C26.9613 220.048 39.9193 234.755 60.6397 245.96C83.8773 258.493 108.733 255.015 133.849 250.65C145.146 248.688 156.789 246.686 168.34 247.436C182.804 248.374 197.083 252.149 211.43 253.985C226.347 255.896 241.81 256.348 256.2 252.189C302.235 238.867 313.135 176.445 294.206 140.683C287.51 128.025 276.152 118.261 265.605 108.354C254.235 97.6347 247.26 87.1671 239.82 73.891Z" fill="#54C5C7"/>
<path opacity="0.8" d="M239.82 73.891C237.851 70.2921 235.68 66.7905 233.316 63.4005C205.72 24.5331 131.71 3.37484 95.0497 43.5521C86.3139 53.1217 83.2697 64.7161 77.3859 75.6756C64.0125 100.672 39.0203 115.584 23.3467 138.71C11.2009 156.637 12.8067 179.614 19.5957 198.993C26.9613 220.048 39.9193 234.755 60.6397 245.96C83.8773 258.493 108.733 255.015 133.849 250.65C145.146 248.688 156.789 246.686 168.34 247.436C182.804 248.374 197.083 252.149 211.43 253.985C226.347 255.896 241.81 256.348 256.2 252.189C302.235 238.867 313.135 176.445 294.206 140.683C287.51 128.025 276.152 118.261 265.605 108.354C254.235 97.6347 247.26 87.1671 239.82 73.891Z" fill="white"/>
<path d="M290.412 147.439C287.969 147.061 283.387 144.155 283.381 144.155C283.375 144.155 286.375 141.947 286.58 141.833C288.998 140.477 294.528 139.173 296.922 141.084C297.309 141.412 297.618 141.812 297.827 142.257C298.037 142.702 298.142 143.183 298.138 143.668C298.133 144.153 298.018 144.632 297.8 145.074C297.582 145.515 297.266 145.91 296.872 146.232C295.241 147.645 292.52 147.765 290.412 147.439Z" fill="#54C5C7"/>
<path d="M279.996 158.902C277.839 157.975 274.472 154.36 274.206 154.074C271.969 155.851 269.608 157.491 267.138 158.982C265.699 159.857 264.224 160.698 262.736 161.521C263.473 161.235 264.143 160.989 264.236 160.949C266.958 160.234 272.668 160.326 274.423 162.751C274.707 163.16 274.895 163.621 274.972 164.101C275.049 164.582 275.015 165.073 274.872 165.541C274.728 166.009 274.478 166.443 274.139 166.815C273.8 167.187 273.379 167.488 272.904 167.699C270.932 168.666 268.241 168.117 266.325 167.293C264.41 166.469 261.452 163.432 260.683 162.62L258.96 163.592C256.195 165.073 253.429 166.544 250.757 168.059C249.821 168.597 248.897 169.152 248.004 169.707C248.668 169.455 249.244 169.249 249.313 169.226C252.028 168.511 257.738 168.603 259.499 171.028C259.784 171.437 259.971 171.898 260.048 172.379C260.125 172.86 260.09 173.351 259.946 173.819C259.801 174.287 259.551 174.721 259.211 175.093C258.871 175.465 258.45 175.766 257.974 175.976C256.002 176.942 253.318 176.393 251.402 175.57C249.486 174.746 246.808 172.006 245.896 171.045C244.985 171.617 244.074 172.235 243.218 172.847C242.648 173.276 242.065 173.653 241.513 174.117L239.87 175.45C238.859 176.33 237.805 177.234 236.844 178.115C236.169 178.721 235.536 179.316 234.898 179.905C235.828 179.368 237.669 178.338 237.836 178.27C240.403 177.183 246.064 176.473 248.203 178.624C248.547 178.991 248.804 179.421 248.957 179.885C249.11 180.35 249.155 180.839 249.09 181.321C249.024 181.803 248.85 182.266 248.577 182.682C248.305 183.097 247.941 183.455 247.508 183.732C245.717 184.962 242.97 184.79 240.943 184.247C238.711 183.675 234.929 180.683 234.464 180.312C233.41 181.301 232.399 182.268 231.457 183.172C230.63 183.999 229.836 184.796 229.076 185.563L227.42 184.562C228.257 183.738 229.15 182.88 230.111 181.976C231.171 180.969 232.331 179.917 233.534 178.842C232.615 177.637 231.776 176.382 231.023 175.083C228.704 175.621 224.103 175.112 223.514 175.038C223.223 176.399 222.963 177.72 222.733 178.973C222.572 179.837 222.429 180.689 222.293 181.467L220.532 180.403C220.644 179.831 220.762 179.259 220.886 178.687C221.171 177.309 221.506 175.827 221.865 174.334C221.301 174.128 216.682 172.429 215.045 170.902C213.582 169.501 212.131 167.344 212.472 165.302C212.531 164.819 212.701 164.353 212.97 163.935C213.239 163.518 213.602 163.157 214.033 162.878C214.464 162.599 214.955 162.408 215.473 162.317C215.99 162.226 216.523 162.237 217.035 162.351C220.098 163.089 222.07 168.031 222.225 170.633C222.225 170.788 222.138 172.469 222.057 173.522C222.206 172.91 222.343 172.309 222.51 171.68C222.82 170.427 223.173 169.192 223.552 167.859C223.756 167.218 223.961 166.572 224.172 165.92C224.382 165.268 224.655 164.61 224.897 163.947C225.517 162.414 226.18 160.892 226.906 159.371C225.722 159.119 221.524 158.152 219.838 156.968C218.151 155.784 216.366 153.857 216.372 151.82C216.351 151.334 216.442 150.849 216.639 150.398C216.837 149.946 217.136 149.539 217.517 149.203C217.898 148.866 218.353 148.608 218.85 148.446C219.347 148.284 219.876 148.221 220.402 148.262C223.545 148.56 226.304 153.176 226.893 155.698C226.931 155.859 227.123 157.729 227.21 158.764C227.656 157.855 228.096 156.94 228.58 156.036C229.969 153.416 231.469 150.802 232.92 148.188C233.379 147.387 233.819 146.586 234.265 145.786C233.844 145.7 228.828 144.642 226.937 143.326C225.257 142.148 223.465 140.214 223.471 138.178C223.45 137.692 223.541 137.208 223.738 136.757C223.935 136.306 224.234 135.899 224.614 135.563C224.994 135.226 225.448 134.968 225.945 134.806C226.441 134.643 226.97 134.58 227.495 134.62C230.644 134.918 233.403 139.534 233.986 142.085C234.036 142.274 234.315 144.973 234.346 145.66C235.325 143.898 236.286 142.131 237.161 140.352C238.349 137.956 239.365 135.491 240.205 132.973C240.013 132.933 234.774 131.863 232.833 130.508C231.153 129.329 229.361 127.396 229.367 125.36C229.352 124.875 229.447 124.392 229.647 123.944C229.846 123.495 230.145 123.09 230.525 122.754C230.905 122.419 231.357 122.161 231.852 121.997C232.346 121.833 232.873 121.766 233.397 121.802C236.547 122.105 239.3 126.715 239.889 129.238C239.932 129.438 240.23 132.344 240.242 132.87C240.292 132.727 240.36 132.578 240.403 132.435C241.174 129.888 241.696 127.283 241.966 124.65C242.133 123.203 242.207 121.79 242.245 120.446C241.246 120.337 236.665 119.8 234.805 118.759C232.945 117.718 230.985 116.019 230.75 113.965C230.671 113.485 230.705 112.994 230.847 112.526C230.99 112.059 231.238 111.624 231.576 111.251C231.915 110.879 232.335 110.577 232.809 110.365C233.283 110.154 233.801 110.037 234.327 110.024C237.489 110.024 240.781 114.308 241.668 116.785C241.711 116.917 242.04 118.341 242.288 119.376C242.288 118.759 242.288 118.129 242.288 117.54C242.288 115.332 242.108 113.307 241.947 111.523C241.848 110.505 241.736 109.584 241.618 108.726C240.701 108.154 237.024 105.786 235.89 104.087C234.755 102.388 233.868 100.031 234.681 98.1094C234.847 97.6469 235.118 97.2223 235.476 96.8639C235.834 96.5056 236.271 96.2218 236.757 96.0313C237.244 95.8408 237.768 95.748 238.296 95.7592C238.825 95.7704 239.344 95.8852 239.82 96.096C242.641 97.423 243.41 102.645 242.958 105.219C242.92 105.442 241.879 108.857 241.829 108.829L241.773 108.794C241.904 109.612 242.028 110.51 242.145 111.466C242.35 113.256 242.561 115.281 242.629 117.495C242.73 119.884 242.683 122.277 242.486 124.662C242.275 127.331 241.808 129.979 241.091 132.572C241.088 132.603 241.088 132.634 241.091 132.664C241.581 131.938 243.038 129.953 243.168 129.804C245.028 127.825 249.821 124.988 252.741 126.12C253.223 126.317 253.654 126.606 254.006 126.968C254.358 127.33 254.622 127.757 254.782 128.221C254.941 128.684 254.992 129.174 254.931 129.657C254.87 130.14 254.698 130.605 254.428 131.022C253.361 132.836 250.794 133.739 248.705 134.031C246.349 134.357 241.383 133.053 240.986 132.95C240.185 135.572 239.195 138.143 238.022 140.643C237.347 142.102 236.621 143.555 235.871 145.002C236.317 144.384 236.727 143.858 236.795 143.772C238.655 141.787 243.447 138.962 246.368 140.089C246.85 140.285 247.281 140.574 247.633 140.936C247.984 141.298 248.249 141.725 248.408 142.189C248.568 142.652 248.619 143.142 248.558 143.625C248.496 144.108 248.325 144.573 248.054 144.991C246.988 146.804 244.415 147.708 242.325 147.999C240.236 148.291 235.952 147.261 234.829 146.975C234.532 147.547 234.247 148.079 233.949 148.628C232.529 151.277 231.097 153.908 229.783 156.534C229.318 157.454 228.896 158.381 228.468 159.308C228.871 158.764 229.212 158.307 229.268 158.244C231.128 156.259 235.927 153.433 238.847 154.56C239.329 154.757 239.76 155.046 240.112 155.408C240.464 155.77 240.728 156.197 240.888 156.66C241.047 157.124 241.098 157.613 241.037 158.096C240.976 158.579 240.804 159.045 240.533 159.462C239.467 161.275 236.894 162.179 234.805 162.471C232.715 162.763 228.846 161.83 227.507 161.493C227.104 162.454 226.695 163.415 226.354 164.353C226.131 165.005 225.877 165.617 225.691 166.286C225.505 166.955 225.306 167.59 225.114 168.231C224.798 169.478 224.494 170.765 224.184 171.995C223.986 172.847 223.812 173.659 223.638 174.477C224.085 173.556 225.015 171.76 225.108 171.617C226.499 169.715 228.394 168.173 230.613 167.138C230.757 166.92 230.923 166.715 231.109 166.526C231.448 166.152 231.869 165.849 232.344 165.637C232.819 165.425 233.338 165.308 233.866 165.295C234.394 165.282 234.918 165.373 235.405 165.562C235.892 165.75 236.33 166.032 236.689 166.389C238.804 168.563 237.489 173.688 236.069 175.941C235.989 176.073 234.904 177.423 234.209 178.258C234.699 177.823 235.177 177.394 235.685 176.954C236.696 176.073 237.731 175.238 238.841 174.294L240.515 172.996C241.067 172.555 241.711 172.149 242.307 171.72C243.72 170.748 245.202 169.827 246.715 168.929C245.878 168.111 242.958 165.171 242.257 163.323C241.556 161.476 241.222 158.965 242.462 157.249C242.734 156.833 243.1 156.475 243.533 156.2C243.967 155.924 244.459 155.737 244.977 155.65C245.495 155.562 246.028 155.578 246.539 155.695C247.05 155.812 247.528 156.027 247.942 156.328C250.391 158.181 249.933 163.432 248.897 165.857C248.829 166.012 247.874 167.67 247.329 168.58C248.246 168.042 249.158 167.51 250.1 166.995C252.828 165.52 255.643 164.101 258.439 162.677C259.295 162.242 260.144 161.796 260.993 161.355C260.696 161.069 257.137 157.643 256.35 155.573C255.655 153.736 255.32 151.214 256.554 149.498C256.827 149.081 257.192 148.723 257.627 148.447C258.061 148.171 258.554 147.983 259.073 147.896C259.591 147.809 260.124 147.824 260.636 147.942C261.148 148.059 261.627 148.276 262.041 148.577C264.49 150.43 264.031 155.681 262.99 158.107C262.915 158.29 261.533 160.686 261.13 161.275C262.99 160.303 264.85 159.319 266.654 158.278C269.074 156.891 271.395 155.362 273.604 153.702C273.468 153.565 269.735 150.007 268.936 147.885C268.235 146.049 267.9 143.526 269.134 141.81C269.407 141.394 269.772 141.035 270.206 140.759C270.641 140.483 271.133 140.295 271.652 140.208C272.171 140.121 272.704 140.137 273.216 140.254C273.728 140.372 274.207 140.588 274.621 140.889C277.07 142.743 276.611 147.994 275.57 150.419C275.489 150.613 274.001 153.187 273.71 153.633C273.84 153.536 273.982 153.445 274.106 153.347C276.272 151.609 278.264 149.695 280.058 147.627C281.069 146.483 281.962 145.38 282.811 144.264C282.042 143.664 278.564 140.901 277.609 139.065C276.655 137.229 276.066 134.838 277.089 133.007C277.313 132.57 277.635 132.181 278.033 131.867C278.431 131.553 278.897 131.32 279.4 131.183C279.903 131.046 280.431 131.009 280.951 131.074C281.47 131.139 281.969 131.305 282.414 131.56C285.068 133.156 285.235 138.424 284.491 140.935C284.454 141.072 283.871 142.422 283.437 143.4C283.809 142.891 284.206 142.371 284.553 141.879C285.862 140.026 286.934 138.258 287.87 136.685C288.397 135.787 288.85 134.969 289.265 134.191C288.844 133.242 287.195 129.398 287.263 127.402C287.331 125.405 288.001 122.991 289.83 121.802C290.247 121.504 290.727 121.292 291.24 121.179C291.753 121.067 292.285 121.055 292.803 121.147C293.321 121.238 293.811 121.43 294.242 121.71C294.674 121.989 295.036 122.35 295.304 122.768C296.86 125.314 294.38 130.056 292.465 131.978C292.303 132.138 289.365 134.46 289.365 134.409V134.351C288.98 135.101 288.559 135.907 288.075 136.771C287.176 138.367 286.141 140.163 284.876 142.05C283.532 144.094 282.06 146.063 280.468 147.948C278.697 150.069 276.726 152.041 274.578 153.839L274.497 153.897C275.34 153.542 277.74 152.632 277.932 152.581C280.654 151.866 286.358 151.952 288.118 154.377C288.399 154.788 288.583 155.248 288.659 155.729C288.734 156.209 288.699 156.699 288.556 157.166C288.412 157.633 288.164 158.068 287.827 158.44C287.49 158.813 287.072 159.117 286.599 159.331C284.597 160.274 281.912 159.72 279.996 158.902Z" fill="#54C5C7"/>
<path d="M242.703 120C242.647 120 243.881 116.642 243.986 116.436C245.189 114.08 249.021 110.173 252.164 110.55C252.686 110.622 253.185 110.796 253.628 111.059C254.072 111.323 254.449 111.67 254.736 112.079C255.023 112.487 255.212 112.947 255.291 113.428C255.37 113.909 255.338 114.4 255.196 114.869C254.681 116.877 252.462 118.375 250.534 119.165C248.264 120.12 242.709 120 242.703 120Z" fill="#54C5C7"/>
<path d="M266.816 219.11C266.165 218.178 265.787 215.713 265.787 215.713C265.787 215.713 267.647 215.976 267.734 216.004C269.054 216.359 271.373 217.755 271.417 219.173C271.416 219.408 271.362 219.641 271.259 219.855C271.155 220.07 271.004 220.262 270.814 220.42C270.625 220.577 270.402 220.696 270.16 220.769C269.918 220.842 269.661 220.867 269.408 220.843C268.342 220.792 267.374 219.9 266.816 219.11Z" fill="#54C5C7"/>
<path d="M258.96 219.431C258.612 218.412 258.91 216.119 258.96 215.936C257.536 215.78 256.126 215.537 254.737 215.209C253.931 215.02 253.119 214.809 252.313 214.591C252.66 214.74 252.977 214.877 253.02 214.906C254.186 215.564 256.027 217.48 255.661 218.853C255.597 219.082 255.481 219.297 255.321 219.482C255.16 219.667 254.959 219.818 254.731 219.926C254.502 220.034 254.252 220.097 253.995 220.109C253.739 220.121 253.482 220.083 253.243 219.997C252.22 219.665 251.557 218.595 251.247 217.709C250.937 216.822 251.141 214.849 251.21 214.311L250.28 214.054C248.798 213.625 247.322 213.19 245.859 212.813C245.344 212.675 244.83 212.561 244.315 212.441C244.631 212.578 244.892 212.692 244.935 212.715C246.107 213.379 247.942 215.289 247.576 216.668C247.51 216.894 247.392 217.106 247.23 217.287C247.069 217.469 246.868 217.618 246.641 217.723C246.413 217.828 246.164 217.888 245.91 217.898C245.655 217.909 245.401 217.869 245.165 217.783C244.142 217.451 243.472 216.382 243.162 215.495C242.852 214.609 243.044 212.813 243.112 212.195C242.585 212.086 242.052 211.983 241.538 211.903C241.184 211.852 240.843 211.783 240.484 211.754L239.43 211.651C238.76 211.606 238.066 211.554 237.408 211.526L236.069 211.474C236.584 211.6 237.588 211.874 237.669 211.903C238.909 212.395 241.06 214.031 240.93 215.444C240.901 215.678 240.818 215.903 240.688 216.105C240.558 216.308 240.383 216.483 240.175 216.619C239.967 216.755 239.73 216.849 239.48 216.895C239.229 216.941 238.971 216.937 238.723 216.885C237.656 216.696 236.826 215.741 236.373 214.889C235.871 213.957 235.784 211.737 235.753 211.457C235.028 211.457 234.321 211.417 233.651 211.411H231.946L231.76 210.496C232.38 210.496 233 210.496 233.62 210.536C234.24 210.576 235.145 210.593 235.958 210.639C236.123 209.941 236.33 209.251 236.578 208.574C235.643 207.853 234.82 207.015 234.135 206.086C233.515 206.435 232.895 206.784 232.355 207.115C231.965 207.344 231.599 207.567 231.246 207.79L231.078 206.858L231.872 206.406C232.492 206.046 233.18 205.674 233.881 205.302C233.775 205.045 232.913 202.968 232.982 201.927C233.044 200.984 233.403 199.8 234.308 199.245C234.516 199.107 234.752 199.012 235.002 198.965C235.252 198.917 235.51 198.919 235.759 198.97C236.008 199.02 236.243 199.119 236.448 199.259C236.653 199.399 236.824 199.577 236.95 199.782C237.669 201.035 236.398 203.3 235.437 204.21C235.381 204.261 234.699 204.782 234.265 205.102L235.127 204.644C235.716 204.335 236.311 204.072 236.95 203.735L237.904 203.306C238.221 203.157 238.574 203.037 238.909 202.9C239.696 202.591 240.515 202.328 241.339 202.059C241.048 201.584 240.05 199.885 239.957 198.942C239.864 197.998 240.025 196.774 240.825 196.082C241.007 195.917 241.225 195.791 241.464 195.709C241.704 195.628 241.959 195.594 242.213 195.61C242.468 195.625 242.715 195.69 242.941 195.8C243.166 195.91 243.364 196.062 243.522 196.247C244.439 197.391 243.553 199.805 242.759 200.823C242.709 200.886 242.046 201.567 241.674 201.933C242.17 201.784 242.666 201.63 243.181 201.493C244.65 201.092 246.157 200.726 247.651 200.349L249.027 200.005C248.922 199.834 247.682 197.838 247.576 196.779C247.483 195.841 247.645 194.617 248.444 193.919C248.627 193.755 248.844 193.628 249.083 193.546C249.322 193.464 249.577 193.43 249.832 193.445C250.086 193.46 250.334 193.524 250.56 193.634C250.785 193.743 250.984 193.895 251.141 194.08C252.059 195.224 251.172 197.637 250.379 198.656C250.317 198.736 249.362 199.714 249.108 199.948C250.112 199.697 251.117 199.433 252.09 199.136C253.407 198.743 254.696 198.271 255.946 197.723C255.897 197.649 254.595 195.567 254.489 194.48C254.39 193.542 254.558 192.318 255.357 191.62C255.54 191.455 255.757 191.328 255.996 191.246C256.235 191.165 256.49 191.13 256.745 191.145C256.999 191.16 257.247 191.225 257.473 191.334C257.698 191.443 257.897 191.595 258.054 191.78C258.972 192.924 258.085 195.344 257.292 196.356C257.23 196.436 256.201 197.5 256.002 197.66L256.225 197.574C257.46 196.99 258.638 196.309 259.747 195.538C260.367 195.115 260.931 194.68 261.471 194.251C261.185 193.885 259.902 192.203 259.685 191.237C259.468 190.27 259.499 189.08 260.212 188.331C260.373 188.148 260.575 187.999 260.803 187.894C261.031 187.788 261.281 187.727 261.536 187.717C261.791 187.706 262.046 187.745 262.283 187.831C262.521 187.917 262.736 188.048 262.915 188.217C263.963 189.258 263.368 191.751 262.698 192.855C262.661 192.918 262.221 193.49 261.892 193.902L262.611 193.33C263.461 192.598 264.192 191.883 264.831 191.242C265.191 190.876 265.513 190.539 265.804 190.219C265.73 189.727 265.439 187.742 265.73 186.787C266.021 185.831 266.635 184.79 267.646 184.43C267.881 184.332 268.137 184.281 268.395 184.282C268.653 184.283 268.909 184.334 269.143 184.434C269.378 184.533 269.588 184.677 269.757 184.857C269.926 185.037 270.052 185.248 270.126 185.477C270.535 186.844 268.768 188.806 267.646 189.481C267.547 189.538 265.879 190.316 265.873 190.287C265.594 190.602 265.29 190.934 264.955 191.288C264.335 191.94 263.61 192.672 262.773 193.422C261.883 194.236 260.941 195 259.952 195.71C258.848 196.515 257.669 197.229 256.43 197.843H256.38C256.827 197.769 258.073 197.597 258.166 197.597C259.536 197.552 262.215 198.215 262.735 199.548C262.815 199.771 262.843 200.008 262.817 200.241C262.791 200.475 262.712 200.702 262.585 200.906C262.458 201.11 262.286 201.287 262.08 201.425C261.874 201.564 261.639 201.661 261.39 201.71C260.336 201.95 259.139 201.401 258.346 200.806C257.447 200.137 256.325 198.072 256.232 197.906C254.954 198.503 253.635 199.019 252.282 199.451C251.495 199.708 250.689 199.943 249.883 200.171C250.267 200.114 250.614 200.074 250.664 200.068C252.034 200.028 254.706 200.686 255.227 202.025C255.307 202.248 255.334 202.484 255.309 202.718C255.283 202.952 255.204 203.178 255.077 203.382C254.95 203.586 254.778 203.763 254.572 203.902C254.366 204.04 254.131 204.138 253.882 204.187C252.828 204.427 251.637 203.878 250.838 203.283C250.038 202.688 249.033 200.938 248.779 200.475L247.849 200.726C246.355 201.127 244.867 201.516 243.416 201.939C242.908 202.088 242.412 202.253 241.91 202.419L242.585 202.334C243.956 202.288 246.634 202.951 247.155 204.284C247.234 204.508 247.262 204.745 247.236 204.979C247.209 205.213 247.13 205.44 247.002 205.644C246.875 205.848 246.702 206.024 246.495 206.163C246.289 206.301 246.053 206.398 245.803 206.446C244.755 206.692 243.559 206.137 242.765 205.542C241.972 204.948 241.054 203.369 240.75 202.82C240.242 202.997 239.74 203.18 239.256 203.392C238.934 203.535 238.636 203.649 238.295 203.809L237.353 204.255C236.764 204.559 236.15 204.873 235.586 205.182C235.189 205.394 234.817 205.605 234.445 205.817C234.947 205.663 235.945 205.377 236.032 205.365C237.225 205.198 238.444 205.318 239.572 205.714C239.704 205.687 239.84 205.673 239.975 205.674C240.228 205.669 240.48 205.712 240.714 205.802C240.948 205.891 241.16 206.025 241.335 206.194C241.51 206.363 241.644 206.563 241.731 206.783C241.817 207.003 241.852 207.237 241.835 207.47C241.68 208.877 239.262 210.124 237.923 210.393C237.842 210.393 236.968 210.49 236.41 210.536C236.745 210.536 237.03 210.57 237.402 210.599C238.078 210.639 238.748 210.702 239.467 210.765L240.521 210.896C240.874 210.931 241.24 211.011 241.606 211.068C242.443 211.211 243.286 211.4 244.129 211.606C244.173 211.062 244.352 209.135 244.842 208.294C245.332 207.453 246.194 206.526 247.26 206.372C247.511 206.327 247.769 206.331 248.018 206.385C248.267 206.438 248.501 206.539 248.705 206.682C248.909 206.824 249.077 207.005 249.2 207.212C249.323 207.418 249.397 207.647 249.418 207.882C249.498 209.295 247.316 210.862 246.033 211.314C245.952 211.342 244.997 211.571 244.47 211.686C244.972 211.812 245.481 211.937 245.989 212.086C247.452 212.498 248.928 212.961 250.397 213.419L251.743 213.831C251.743 213.636 251.923 211.337 252.468 210.399C252.952 209.569 253.814 208.631 254.886 208.477C255.137 208.432 255.395 208.436 255.644 208.489C255.893 208.543 256.127 208.644 256.331 208.787C256.535 208.929 256.703 209.11 256.826 209.317C256.949 209.523 257.023 209.752 257.044 209.987C257.124 211.4 254.942 212.973 253.659 213.419C253.566 213.453 252.183 213.779 251.83 213.848C252.822 214.145 253.814 214.42 254.799 214.689C256.134 215.029 257.49 215.291 258.86 215.472C258.86 215.381 259.028 212.984 259.586 212.04C260.069 211.211 260.937 210.273 262.01 210.118C262.261 210.073 262.519 210.078 262.767 210.131C263.016 210.185 263.249 210.286 263.453 210.429C263.656 210.571 263.824 210.752 263.946 210.959C264.068 211.165 264.142 211.394 264.161 211.629C264.242 213.041 262.06 214.609 260.776 215.061C260.677 215.095 259.195 215.449 258.916 215.495C258.991 215.495 259.071 215.524 259.152 215.53C260.533 215.675 261.925 215.708 263.312 215.627C264.081 215.592 264.812 215.518 265.519 215.432C265.519 214.98 265.432 212.927 265.829 212C266.226 211.074 266.964 210.101 268.005 209.844C268.249 209.774 268.507 209.752 268.76 209.779C269.014 209.807 269.259 209.884 269.478 210.005C269.698 210.126 269.887 210.288 270.034 210.481C270.181 210.674 270.282 210.894 270.33 211.125C270.578 212.521 268.594 214.305 267.379 214.883L266.077 215.341L267.032 215.215C268.179 215.038 269.214 214.809 270.132 214.603C270.653 214.483 271.118 214.363 271.558 214.248C271.787 213.796 272.736 211.995 273.53 211.36C274.323 210.725 275.483 210.158 276.543 210.37C276.794 210.412 277.032 210.502 277.243 210.634C277.454 210.767 277.632 210.939 277.766 211.139C277.899 211.339 277.986 211.563 278.02 211.796C278.054 212.029 278.034 212.267 277.963 212.492C277.485 213.842 274.863 214.58 273.461 214.574C273.344 214.574 271.49 214.374 271.502 214.351V214.323C271.087 214.443 270.64 214.569 270.144 214.694C269.233 214.917 268.198 215.163 267.044 215.364C265.816 215.591 264.573 215.752 263.324 215.844C261.922 215.958 260.511 215.958 259.108 215.844H259.059C259.474 216.004 260.615 216.496 260.696 216.542C261.867 217.206 263.703 219.122 263.337 220.495C263.273 220.724 263.157 220.938 262.996 221.123C262.836 221.308 262.635 221.46 262.406 221.568C262.178 221.676 261.927 221.738 261.671 221.75C261.414 221.763 261.158 221.724 260.919 221.639C259.939 221.398 259.27 220.329 258.96 219.431Z" fill="#54C5C7"/>
<path d="M261.812 194.371C261.812 194.371 263.505 193.656 263.617 193.622C264.925 193.25 267.696 193.233 268.577 194.394C268.716 194.591 268.81 194.812 268.851 195.044C268.893 195.276 268.881 195.513 268.816 195.741C268.752 195.968 268.637 196.181 268.478 196.364C268.319 196.548 268.121 196.699 267.895 196.808C266.946 197.3 265.638 197.06 264.702 196.682C263.604 196.236 261.819 194.371 261.812 194.371Z" fill="#54C5C7"/>
<path d="M17.532 147.439C19.9748 147.061 24.5566 144.144 24.5628 144.144C24.569 144.144 21.5806 141.948 21.3636 141.856C18.9456 140.5 13.4152 139.196 11.022 141.107C10.6292 141.432 10.316 141.831 10.1031 142.276C9.89024 142.722 9.78256 143.204 9.78726 143.691C9.79195 144.178 9.9089 144.658 10.1303 145.1C10.3518 145.542 10.6726 145.936 11.0716 146.255C12.696 147.645 15.4488 147.765 17.532 147.439Z" fill="#54C5C7"/>
<path d="M27.9483 158.902C30.1059 157.975 33.4663 154.36 33.7329 154.074C35.9709 155.85 38.3319 157.489 40.8009 158.982C42.2393 159.857 43.7149 160.698 45.2029 161.521C44.4589 161.235 43.7955 160.989 43.6963 160.949C40.9807 160.234 35.2705 160.326 33.5097 162.751C33.2251 163.161 33.0382 163.621 32.9612 164.102C32.8842 164.584 32.919 165.074 33.0632 165.542C33.2074 166.01 33.4578 166.444 33.7977 166.816C34.1377 167.188 34.5594 167.489 35.0349 167.699C37.0065 168.666 39.6973 168.116 41.6069 167.293C43.5165 166.469 46.4863 163.432 47.2551 162.62L48.9849 163.592C51.7501 165.073 54.5153 166.543 57.1813 168.059C58.1237 168.597 59.0413 169.152 59.9341 169.707C59.2769 169.455 58.6941 169.249 58.6321 169.226C55.9165 168.511 50.2063 168.603 48.4455 171.028C48.1607 171.437 47.9734 171.897 47.896 172.378C47.8186 172.859 47.8529 173.35 47.9965 173.818C48.1401 174.285 48.3898 174.72 48.7291 175.092C49.0684 175.464 49.4895 175.765 49.9645 175.976C51.9423 176.942 54.6269 176.393 56.5427 175.57C58.4585 174.746 61.1307 172.006 62.0483 171.045C62.9597 171.617 63.8711 172.235 64.7267 172.847C65.2971 173.276 65.8799 173.653 66.4317 174.117L68.0747 175.45C69.0853 176.33 70.1331 177.234 71.1003 178.115C71.7761 178.721 72.4085 179.316 73.0471 179.905C72.1171 179.368 70.2695 178.338 70.1083 178.269C67.5415 177.183 61.8809 176.473 59.7419 178.624C59.3926 178.989 59.1314 179.419 58.9758 179.884C58.8203 180.349 58.7738 180.84 58.8394 181.323C58.9051 181.806 59.0815 182.271 59.3568 182.686C59.6321 183.101 60.0001 183.458 60.4363 183.732C62.2281 184.962 64.9747 184.79 67.0021 184.247C69.2341 183.675 73.0099 180.683 73.4811 180.312C74.5351 181.301 75.5457 182.268 76.4881 183.172C77.3313 184.001 78.1187 184.796 78.8689 185.562L80.5305 184.561C79.6873 183.738 78.8007 182.88 77.8397 181.976C76.7795 180.969 75.6201 179.917 74.4173 178.841C75.3253 177.636 76.1534 176.381 76.8973 175.083C79.2161 175.621 83.8103 175.112 84.4055 175.038C84.6907 176.399 84.9573 177.72 85.1867 178.973C85.3479 179.837 85.4905 180.689 85.6269 181.467L87.3877 180.403C87.2699 179.831 87.1583 179.259 87.0343 178.687C86.7491 177.309 86.4143 175.827 86.0547 174.334C86.6189 174.128 91.2379 172.429 92.8747 170.902C94.3441 169.501 95.7949 167.344 95.4539 165.302C95.3946 164.819 95.2248 164.353 94.9557 163.935C94.6866 163.518 94.3244 163.157 93.893 162.878C93.4616 162.599 92.9708 162.408 92.4532 162.317C91.9357 162.226 91.4031 162.237 90.8907 162.351C87.8279 163.089 85.8563 168.031 85.6951 170.633C85.6951 170.788 85.7881 172.469 85.8687 173.522C85.7199 172.91 85.5773 172.309 85.4161 171.68C85.1061 170.427 84.7527 169.192 84.3745 167.859C84.1699 167.218 83.9653 166.572 83.7545 165.92C83.5437 165.268 83.2647 164.61 83.0229 163.947C82.4029 162.414 81.7457 160.892 81.0141 159.371C82.2045 159.119 86.3957 158.152 88.0883 156.968C89.7809 155.784 91.5541 153.857 91.5541 151.82C91.5753 151.334 91.4842 150.849 91.2867 150.398C91.0893 149.946 90.7901 149.539 90.409 149.203C90.0279 148.866 89.5735 148.608 89.0762 148.446C88.5788 148.284 88.0497 148.221 87.5241 148.262C84.3745 148.56 81.6217 153.176 81.0327 155.698C80.9955 155.859 80.8033 157.729 80.7165 158.764C80.2701 157.855 79.8299 156.94 79.3463 156.036C77.9575 153.416 76.4571 150.802 75.0063 148.188C74.5537 147.387 74.1135 146.586 73.6671 145.786C74.0887 145.7 79.1045 144.642 80.9955 143.326C82.6757 142.148 84.4675 140.214 84.4613 138.178C84.4825 137.692 84.3914 137.207 84.1939 136.756C83.9965 136.304 83.6973 135.897 83.3162 135.56C82.9351 135.224 82.4808 134.966 81.9834 134.804C81.486 134.642 80.9569 134.579 80.4313 134.62C77.2817 134.918 74.5289 139.534 73.9399 142.085C73.8965 142.274 73.6175 144.973 73.5865 145.66C72.6007 143.898 71.6397 142.131 70.7717 140.352C69.5844 137.955 68.5655 135.49 67.7213 132.973C67.9197 132.933 73.1587 131.863 75.0993 130.507C76.7795 129.329 78.5651 127.396 78.5651 125.359C78.5804 124.875 78.4852 124.392 78.2857 123.944C78.0863 123.495 77.7869 123.09 77.4071 122.754C77.0273 122.419 76.5754 122.161 76.0807 121.997C75.5859 121.833 75.0594 121.766 74.5351 121.802C71.3855 122.105 68.6327 126.715 68.0437 129.238C68.0003 129.438 67.6965 132.344 67.6841 132.87C67.6407 132.727 67.5725 132.578 67.5229 132.435C66.7575 129.887 66.2367 127.282 65.9667 124.65C65.7993 123.203 65.7249 121.79 65.6877 120.446C66.6859 120.337 71.2677 119.8 73.1277 118.759C74.9877 117.718 76.9469 116.019 77.1887 113.965C77.267 113.485 77.2338 112.994 77.0913 112.526C76.9488 112.059 76.7002 111.624 76.362 111.251C76.0239 110.879 75.6038 110.577 75.1295 110.365C74.6553 110.154 74.1378 110.037 73.6113 110.024C70.4431 110.024 67.1571 114.308 66.2705 116.785C66.2209 116.917 65.8985 118.341 65.6505 119.376C65.6505 118.759 65.6505 118.129 65.6505 117.54C65.6505 115.332 65.8303 113.307 65.9915 111.523C66.0907 110.505 66.2023 109.584 66.3139 108.726C67.2377 108.154 70.9081 105.786 72.0489 104.087C73.1897 102.388 74.0639 100.031 73.2889 98.1094C73.1241 97.6385 72.8509 97.206 72.488 96.8417C72.1252 96.4773 71.6812 96.1896 71.1865 95.9984C70.6918 95.8071 70.1581 95.7168 69.6221 95.7337C69.0861 95.7505 68.5603 95.8741 68.0809 96.096C65.2599 97.423 64.4911 102.645 64.9437 105.219C64.9809 105.442 66.0225 108.857 66.0721 108.829L66.1279 108.794C65.9977 109.612 65.8737 110.51 65.7559 111.466C65.5513 113.256 65.3405 115.281 65.2723 117.494C65.1709 119.884 65.2185 122.277 65.4149 124.662C65.6346 127.327 66.1118 129.968 66.8409 132.555C66.8409 132.555 66.8409 132.612 66.8409 132.647C66.3449 131.92 64.8941 129.935 64.7639 129.787C62.9039 127.808 58.1113 124.971 55.1849 126.103C54.7029 126.3 54.2716 126.589 53.9198 126.951C53.568 127.313 53.3036 127.74 53.1442 128.203C52.9847 128.667 52.9338 129.156 52.9949 129.639C53.056 130.122 53.2276 130.588 53.4985 131.005C54.5649 132.818 57.1379 133.722 59.2273 134.014C61.5833 134.34 66.5495 133.036 66.9401 132.933C67.7532 135.56 68.7557 138.134 69.9409 140.638C70.6105 142.096 71.3421 143.549 72.0923 144.996C71.6397 144.378 71.2367 143.852 71.1685 143.766C69.3085 141.782 64.5159 138.956 61.5957 140.083C61.1137 140.279 60.6824 140.568 60.3306 140.931C59.9788 141.293 59.7144 141.72 59.555 142.183C59.3955 142.647 59.3446 143.136 59.4057 143.619C59.4668 144.102 59.6384 144.568 59.9093 144.985C60.9757 146.798 63.5487 147.702 65.6319 147.994C67.7151 148.285 72.0117 147.256 73.1339 146.97C73.4253 147.542 73.7167 148.074 74.0143 148.623C75.4341 151.271 76.8663 153.902 78.1807 156.528C78.6457 157.449 79.0673 158.375 79.4889 159.302C79.0921 158.759 78.7511 158.301 78.6891 158.238C76.8291 156.253 72.0365 153.428 69.1163 154.554C68.6343 154.751 68.203 155.04 67.8512 155.402C67.4994 155.764 67.235 156.191 67.0756 156.655C66.9161 157.118 66.8652 157.608 66.9263 158.091C66.9874 158.574 67.159 159.039 67.4299 159.456C68.4963 161.27 71.0693 162.173 73.1587 162.465C75.2481 162.757 79.1169 161.824 80.4561 161.487C80.8591 162.448 81.2621 163.409 81.6093 164.347C81.8263 164.999 82.0867 165.611 82.2665 166.28C82.4463 166.95 82.6571 167.585 82.8493 168.225C83.1655 169.472 83.4693 170.759 83.7793 171.989C83.9777 172.841 84.1513 173.653 84.3249 174.471C83.8723 173.55 82.9485 171.754 82.8555 171.611C81.463 169.711 79.5681 168.169 77.3499 167.133C77.2042 166.916 77.0383 166.711 76.8539 166.521C76.5155 166.147 76.0946 165.843 75.6194 165.631C75.1441 165.419 74.6253 165.302 74.0975 165.289C73.5696 165.276 73.0448 165.367 72.558 165.556C72.0712 165.744 71.6334 166.027 71.2739 166.383C69.1597 168.557 70.4741 173.682 71.8939 175.936C71.9807 176.067 73.0657 177.417 73.7539 178.252C73.2579 177.818 72.7867 177.389 72.2721 176.948C71.2677 176.067 70.2323 175.232 69.1225 174.288L67.4609 172.996C66.9153 172.555 66.2705 172.149 65.6753 171.72C64.2617 170.748 62.7799 169.827 61.2609 168.929C62.0979 168.111 65.0243 165.171 65.7249 163.323C66.4255 161.476 66.7603 158.964 65.5203 157.248C65.2477 156.83 64.8816 156.47 64.4464 156.193C64.0112 155.916 63.5169 155.727 62.9964 155.64C62.476 155.553 61.9414 155.569 61.4283 155.688C60.9152 155.806 60.4354 156.024 60.0209 156.328C57.5781 158.181 58.0369 163.432 59.0723 165.857C59.1343 166.012 60.0953 167.67 60.6347 168.58C59.7233 168.042 58.8119 167.51 57.8633 166.995C55.1353 165.52 52.3267 164.101 49.5305 162.677C48.6749 162.242 47.8255 161.796 46.9699 161.355C47.2737 161.069 50.8263 157.643 51.6137 155.573C52.3143 153.736 52.6491 151.214 51.4153 149.498C51.1392 149.085 50.7721 148.73 50.3377 148.457C49.9034 148.183 49.4115 147.997 48.8941 147.91C48.3767 147.823 47.8453 147.838 47.3343 147.952C46.8234 148.067 46.3443 148.28 45.9283 148.577C43.4483 150.43 43.9381 155.681 44.9735 158.106C45.0541 158.29 46.4367 160.686 46.8335 161.275C44.9735 160.303 43.1135 159.319 41.3155 158.278C38.8947 156.889 36.5712 155.361 34.3591 153.702C34.5017 153.565 38.2279 150.007 39.0339 147.885C39.7345 146.049 40.0693 143.526 38.8355 141.81C38.5614 141.397 38.1963 141.042 37.764 140.767C37.3316 140.493 36.8416 140.305 36.3256 140.216C35.8096 140.127 35.2791 140.139 34.7684 140.251C34.2577 140.363 33.7782 140.573 33.3609 140.866C30.8809 142.72 31.3707 147.971 32.4061 150.396C32.4929 150.59 33.9747 153.164 34.2661 153.611C34.1359 153.513 33.9933 153.422 33.8693 153.325C31.7031 151.585 29.7091 149.671 27.9111 147.605C26.9067 146.461 26.0077 145.357 25.1645 144.241C25.9333 143.641 29.4115 140.878 30.3663 139.042C31.3211 137.206 31.9101 134.815 30.8871 132.984C30.661 132.545 30.3364 132.155 29.9346 131.84C29.5328 131.525 29.0631 131.293 28.5566 131.158C28.0501 131.024 27.5184 130.99 26.9967 131.059C26.4749 131.128 25.9751 131.299 25.5303 131.56C22.8767 133.156 22.7093 138.424 23.4533 140.935C23.4905 141.072 24.0733 142.422 24.5011 143.4C24.1291 142.891 23.7385 142.371 23.3913 141.879C22.0831 140.026 21.0105 138.258 20.0743 136.685C19.5473 135.787 19.0947 134.969 18.6793 134.191C19.1009 133.242 20.7501 129.398 20.6819 127.402C20.6137 125.405 19.9379 122.991 18.1151 121.802C17.698 121.504 17.2173 121.292 16.7046 121.179C16.192 121.067 15.6593 121.055 15.1417 121.147C14.6241 121.238 14.1334 121.43 13.7022 121.71C13.271 121.989 12.9091 122.35 12.6405 122.768C11.0843 125.314 13.5643 130.056 15.4739 131.978C15.6413 132.138 18.5739 134.46 18.5739 134.409V134.351C18.9583 135.101 19.3799 135.907 19.8573 136.771C20.7625 138.367 21.7979 140.163 23.0627 142.05C24.4062 144.092 25.876 146.061 27.4647 147.948C29.2387 150.068 31.2118 152.039 33.3609 153.839L33.4415 153.897C32.5983 153.542 30.1989 152.632 30.0067 152.581C27.2849 151.866 21.5747 151.952 19.8139 154.377C19.5342 154.788 19.3512 155.249 19.2768 155.73C19.2024 156.21 19.2383 156.7 19.3821 157.167C19.5259 157.634 19.7744 158.068 20.1115 158.44C20.4486 158.813 20.8668 159.116 21.3391 159.331C23.3417 160.274 26.0325 159.72 27.9483 158.902Z" fill="#54C5C7"/>
<path d="M65.2418 120C65.2976 120 64.0638 116.642 63.9584 116.436C62.7556 114.08 58.9178 110.173 55.7806 110.55C55.259 110.622 54.76 110.796 54.3166 111.059C53.8733 111.323 53.4957 111.67 53.209 112.079C52.9223 112.487 52.733 112.947 52.6537 113.428C52.5743 113.909 52.6068 114.4 52.7488 114.869C53.2572 116.877 55.483 118.375 57.4112 119.165C59.6804 120.12 65.2356 120 65.2418 120Z" fill="#54C5C7"/>
<path d="M41.1235 219.11C41.7807 218.178 42.1589 215.713 42.1589 215.713C42.1589 215.713 40.2989 215.976 40.2059 216.004C38.8915 216.359 36.5727 217.755 36.5293 219.173C36.5287 219.409 36.5819 219.641 36.6854 219.857C36.7888 220.072 36.9402 220.264 37.1297 220.422C37.3192 220.579 37.5426 220.698 37.7852 220.771C38.0279 220.844 38.2844 220.868 38.5381 220.843C39.6231 220.792 40.5717 219.9 41.1235 219.11Z" fill="#54C5C7"/>
<path d="M48.9837 219.431C49.3309 218.412 49.0333 216.119 48.9837 215.936C50.407 215.78 51.8174 215.537 53.2059 215.209C54.0119 215.02 54.8241 214.809 55.6301 214.591C55.2767 214.74 54.9667 214.877 54.9233 214.906C53.7515 215.564 51.9163 217.48 52.2821 218.853C52.3462 219.082 52.4622 219.297 52.6225 219.482C52.7829 219.667 52.9839 219.818 53.2124 219.926C53.4409 220.034 53.6916 220.097 53.9481 220.109C54.2045 220.121 54.4608 220.083 54.7001 219.997C55.7231 219.665 56.3865 218.595 56.6965 217.709C57.0065 216.822 56.8019 214.849 56.7337 214.311L57.6637 214.054C59.1455 213.625 60.6211 213.19 62.0843 212.813C62.5989 212.675 63.1135 212.561 63.6219 212.441L63.0019 212.715C61.8797 213.356 60.0197 215.255 60.3917 216.633C60.4601 216.86 60.5792 217.07 60.7412 217.252C60.9032 217.433 61.1046 217.581 61.3325 217.686C61.5603 217.791 61.8095 217.851 62.0639 217.862C62.3183 217.873 62.5724 217.834 62.8097 217.749C63.8327 217.417 64.5023 216.347 64.8123 215.461C65.1223 214.574 64.9301 212.778 64.8619 212.16C65.3889 212.052 65.9159 211.949 66.4367 211.869C66.7901 211.817 67.1311 211.749 67.4907 211.72L68.5447 211.617C69.2143 211.571 69.9087 211.52 70.5659 211.491L71.8989 211.44C71.3843 211.566 70.3861 211.84 70.3055 211.869C69.0655 212.361 66.9079 213.997 67.0443 215.409C67.0737 215.643 67.1561 215.869 67.2862 216.071C67.4162 216.274 67.5911 216.449 67.7993 216.585C68.0075 216.72 68.2445 216.814 68.4947 216.86C68.7449 216.906 69.0028 216.903 69.2515 216.851C70.3117 216.662 71.1487 215.707 71.6013 214.855C72.1035 213.922 72.1903 211.703 72.2213 211.423C72.9467 211.423 73.6535 211.383 74.3231 211.377H76.0281L76.1397 210.496C75.5197 210.496 74.8997 210.496 74.2797 210.536C73.6597 210.576 72.7483 210.593 71.9423 210.639C71.7792 209.94 71.5722 209.251 71.3223 208.574C72.2698 207.854 73.1044 207.017 73.8023 206.086C74.4223 206.435 75.0423 206.784 75.5817 207.115C75.9661 207.344 76.3381 207.567 76.6915 207.79L76.8589 206.858L76.0653 206.406C75.4453 206.046 74.7571 205.674 74.0565 205.302C74.1619 205.045 75.0175 202.968 74.9555 201.927C74.8935 200.984 74.5277 199.8 73.6287 199.245C73.4214 199.107 73.1851 199.012 72.9352 198.965C72.6852 198.917 72.4272 198.919 72.1781 198.97C71.9289 199.02 71.6941 199.119 71.489 199.259C71.2838 199.399 71.113 199.577 70.9875 199.782C70.2683 201.035 71.5393 203.3 72.4941 204.21C72.5561 204.261 73.2381 204.782 73.6721 205.102L72.8103 204.644C72.1903 204.335 71.6261 204.072 70.9875 203.735L70.0327 203.306C69.7165 203.157 69.3631 203.037 69.0283 202.9C68.2409 202.591 67.4225 202.328 66.5979 202.059C66.8831 201.584 67.8875 199.885 67.9805 198.942C68.0735 197.998 67.9123 196.774 67.1125 196.082C66.9299 195.917 66.7119 195.791 66.4727 195.709C66.2334 195.628 65.9783 195.594 65.7239 195.61C65.4696 195.625 65.2216 195.69 64.9962 195.8C64.7707 195.91 64.5729 196.062 64.4155 196.247C63.4979 197.391 64.4155 199.805 65.1781 200.823C65.2277 200.886 65.8911 201.567 66.2631 201.933C65.7609 201.784 65.2649 201.63 64.7565 201.493C63.2871 201.092 61.7805 200.726 60.2801 200.349C59.8213 200.24 59.3687 200.12 58.9099 200.005C59.0153 199.834 60.2553 197.838 60.3607 196.779C60.4537 195.841 60.2925 194.617 59.4927 193.919C59.31 193.755 59.0918 193.627 58.8523 193.546C58.6128 193.464 58.3574 193.429 58.1025 193.444C57.8476 193.459 57.5991 193.524 57.3729 193.633C57.1467 193.743 56.9479 193.895 56.7895 194.08C55.8781 195.224 56.7895 197.637 57.5583 198.656C57.6203 198.736 58.5689 199.714 58.8293 199.948C57.8187 199.697 56.8205 199.433 55.8471 199.136C54.521 198.767 53.2224 198.318 51.9597 197.792C52.0031 197.717 53.3051 195.635 53.4167 194.549C53.5097 193.61 53.3485 192.386 52.5487 191.689C52.366 191.524 52.1478 191.397 51.9083 191.315C51.6688 191.233 51.4134 191.199 51.1585 191.214C50.9036 191.229 50.6551 191.293 50.4289 191.402C50.2027 191.512 50.0039 191.664 49.8455 191.849C48.9341 192.993 49.8455 195.412 50.6143 196.425C50.6763 196.505 51.7055 197.569 51.9039 197.729L51.6807 197.643C50.4412 197.063 49.2569 196.388 48.1405 195.624C47.5205 195.201 46.9563 194.766 46.4169 194.337C46.7083 193.971 47.9917 192.289 48.2025 191.322C48.4133 190.356 48.3947 189.166 47.6817 188.417C47.5202 188.234 47.3189 188.085 47.0908 187.979C46.8626 187.874 46.6129 187.813 46.3578 187.802C46.1028 187.792 45.8481 187.831 45.6104 187.917C45.3728 188.003 45.1575 188.134 44.9785 188.302C43.9307 189.343 44.5197 191.837 45.1893 192.941C45.2265 193.004 45.6729 193.576 46.0015 193.988L45.2823 193.416C44.4329 192.684 43.7013 191.969 43.0627 191.328C42.6969 190.962 42.3807 190.625 42.0831 190.304C42.1637 189.812 42.4489 187.828 42.1637 186.872C41.8785 185.917 41.2523 184.876 40.2417 184.516C40.0079 184.422 39.7552 184.374 39.5002 184.377C39.2451 184.38 38.9936 184.432 38.7622 184.531C38.5308 184.63 38.3247 184.773 38.1576 184.951C37.9905 185.129 37.8661 185.337 37.7927 185.562C37.3835 186.93 39.1505 188.891 40.2727 189.566C40.3719 189.624 42.0397 190.402 42.0397 190.373C42.3187 190.688 42.6163 191.019 42.9573 191.374C43.5773 192.026 44.2965 192.758 45.1335 193.508C46.0267 194.321 46.9707 195.084 47.9607 195.796C49.0646 196.601 50.243 197.314 51.4823 197.929H51.5257C51.0855 197.855 49.8393 197.683 49.7463 197.683C48.3699 197.637 45.6977 198.301 45.1769 199.634C45.0963 199.857 45.0678 200.094 45.0933 200.328C45.1187 200.562 45.1975 200.789 45.3246 200.993C45.4516 201.197 45.624 201.374 45.8304 201.512C46.0368 201.651 46.2726 201.747 46.5223 201.796C47.5763 202.036 48.7729 201.487 49.5665 200.892C50.4655 200.223 51.5877 198.158 51.6807 197.992C52.9579 198.588 54.2774 199.104 55.6301 199.536C56.4175 199.794 57.2173 200.028 58.0295 200.257L57.2793 200.2C55.9091 200.16 53.2307 200.818 52.7099 202.156C52.6314 202.38 52.6046 202.616 52.6314 202.85C52.6581 203.084 52.7377 203.31 52.8651 203.514C52.9925 203.718 53.1648 203.895 53.3709 204.033C53.577 204.172 53.8122 204.269 54.0615 204.318C55.1093 204.559 56.3059 204.009 57.1057 203.415C57.9055 202.82 58.9099 201.069 59.1641 200.606L60.0941 200.858C61.5883 201.258 63.0763 201.647 64.5271 202.07C65.0355 202.219 65.5315 202.385 66.0275 202.551L65.3579 202.465C63.9815 202.419 61.3093 203.083 60.7885 204.416C60.7089 204.639 60.6812 204.875 60.7071 205.109C60.733 205.343 60.812 205.569 60.9388 205.773C61.0657 205.977 61.2377 206.154 61.4436 206.293C61.6495 206.431 61.8847 206.528 62.1339 206.578C63.1879 206.824 64.3845 206.269 65.1781 205.674C65.9717 205.079 66.8831 203.5 67.1931 202.951C67.6953 203.129 68.2037 203.312 68.6811 203.523C69.0097 203.666 69.3011 203.781 69.6483 203.941L70.5907 204.387C71.2107 204.69 71.7873 205.005 72.3577 205.314C72.7483 205.525 73.1203 205.737 73.4985 205.949C72.9901 205.794 71.9919 205.508 71.9113 205.497C70.7163 205.33 69.495 205.45 68.3649 205.846C68.2348 205.818 68.1016 205.805 67.9681 205.806C67.7149 205.8 67.4631 205.844 67.2291 205.933C66.995 206.023 66.7837 206.156 66.6087 206.325C66.4337 206.494 66.2988 206.695 66.2126 206.915C66.1264 207.134 66.0908 207.368 66.1081 207.602C66.2569 209.009 68.6749 210.256 70.0203 210.525C70.0947 210.525 70.9751 210.622 71.5331 210.668C71.1983 210.668 70.8759 210.702 70.5411 210.73C69.8653 210.77 69.1957 210.833 68.4765 210.896L67.4225 211.028C67.0691 211.062 66.7033 211.142 66.3375 211.199C65.5005 211.342 64.6573 211.531 63.8141 211.737C63.7707 211.194 63.5847 209.266 63.1011 208.425C62.6175 207.584 61.7247 206.646 60.6397 206.492C60.3892 206.447 60.1311 206.451 59.8825 206.505C59.6339 206.558 59.4003 206.659 59.1971 206.802C58.994 206.945 58.8258 207.125 58.7036 207.332C58.5815 207.539 58.5081 207.767 58.4883 208.002C58.4015 209.415 60.5901 210.982 61.8673 211.434C61.9479 211.463 62.9089 211.691 63.4359 211.806C62.9337 211.932 62.4253 212.057 61.9169 212.206C60.4475 212.618 58.9781 213.081 57.5087 213.539L56.1571 213.951C56.1571 213.756 55.9835 211.457 55.4379 210.519C54.9543 209.689 54.0863 208.751 53.0137 208.597C52.7632 208.552 52.5051 208.556 52.2565 208.61C52.0079 208.663 51.7743 208.764 51.5711 208.907C51.368 209.05 51.1998 209.23 51.0776 209.437C50.9555 209.644 50.8821 209.872 50.8623 210.107C50.7817 211.52 52.9641 213.093 54.2475 213.539C54.3405 213.573 55.7231 213.899 56.1075 213.968C55.1155 214.265 54.1235 214.54 53.1377 214.809C51.8013 215.149 50.4429 215.411 49.0705 215.592C49.0705 215.501 48.9093 213.104 48.3513 212.16C47.8677 211.331 46.9997 210.393 45.9271 210.239C45.6766 210.193 45.4185 210.198 45.1699 210.251C44.9213 210.305 44.6877 210.406 44.4845 210.549C44.2814 210.691 44.1132 210.872 43.991 211.079C43.8689 211.285 43.7955 211.514 43.7757 211.749C43.6889 213.161 45.8775 214.729 47.1547 215.181C47.2601 215.215 48.7419 215.57 49.0147 215.615L48.7729 215.65C47.3941 215.795 46.004 215.828 44.6189 215.747C43.8501 215.713 43.1185 215.638 42.4117 215.552C42.4117 215.101 42.4985 213.047 42.1017 212.12C41.7049 211.194 40.9671 210.221 39.9193 209.964C39.6757 209.895 39.419 209.873 39.1659 209.902C38.9128 209.93 38.669 210.007 38.4503 210.128C38.2316 210.248 38.0429 210.41 37.8965 210.603C37.7501 210.796 37.6492 211.014 37.6005 211.245C37.3463 212.641 39.3365 214.426 40.5517 215.003L41.8537 215.461L40.8989 215.335C39.7519 215.158 38.7165 214.929 37.7989 214.723C37.2781 214.603 36.8069 214.483 36.3729 214.368C36.1435 213.916 35.1949 212.115 34.3951 211.48C33.5953 210.845 32.4483 210.279 31.3881 210.49C31.1372 210.532 30.8987 210.622 30.688 210.755C30.4773 210.887 30.2992 211.059 30.1653 211.259C30.0314 211.459 29.9446 211.683 29.9107 211.916C29.8768 212.15 29.8964 212.387 29.9683 212.612C30.4395 213.962 33.0683 214.7 34.4633 214.694C34.5811 214.694 36.4349 214.494 36.4287 214.471V214.443C36.8503 214.563 37.2967 214.689 37.7927 214.815C38.7041 215.038 39.7395 215.284 40.8927 215.484C42.1213 215.712 43.3635 215.872 44.6127 215.964C46.0133 216.079 47.422 216.079 48.8225 215.964H48.8597C48.4443 216.124 47.3035 216.616 47.2229 216.662C46.0511 217.326 44.2159 219.242 44.5755 220.615C44.6396 220.844 44.7556 221.058 44.9159 221.243C45.0763 221.428 45.2773 221.58 45.5058 221.688C45.7343 221.796 45.985 221.858 46.2415 221.87C46.4979 221.883 46.7542 221.845 46.9935 221.759C48.0041 221.398 48.6737 220.329 48.9837 219.431Z" fill="#54C5C7"/>
<path d="M46.127 194.371C46.127 194.371 44.4406 193.656 44.329 193.622C43.0146 193.25 40.2494 193.233 39.369 194.394C39.2292 194.591 39.1357 194.812 39.0944 195.044C39.0531 195.276 39.065 195.513 39.1293 195.741C39.1935 195.968 39.3087 196.181 39.4675 196.364C39.6263 196.548 39.825 196.699 40.051 196.808C40.9934 197.3 42.3078 197.06 43.244 196.682C44.3414 196.236 46.127 194.371 46.127 194.371Z" fill="#54C5C7"/>
<path d="M157.887 168.144C199.283 166.476 231.376 134.164 229.569 95.9726C227.761 57.7811 192.738 28.1725 151.342 29.84C109.945 31.5075 77.8519 63.8196 79.6593 102.011C81.4667 140.203 116.49 169.811 157.887 168.144Z" stroke="#263238" stroke-linecap="round" stroke-linejoin="round"/>
<path d="M139.547 163.02C143.571 163.831 147.664 164.317 151.779 164.473" stroke="#263238" stroke-linecap="round" stroke-linejoin="round"/>
<path d="M130.346 160.572C132.379 161.258 134.446 161.857 136.546 162.368" stroke="#263238" stroke-linecap="round" stroke-linejoin="round"/>
<path d="M86.295 81.0581C81.5191 96.5729 83.11 113.168 90.7634 127.668C98.4168 142.169 111.596 153.558 127.779 159.657" stroke="#263238" stroke-linecap="round" stroke-linejoin="round"/>
<path d="M95.8428 62.2107C93.2777 65.7001 91.0811 69.4084 89.2832 73.2846" stroke="#263238" stroke-linecap="round" stroke-linejoin="round"/>
<path d="M144.445 68.2452L152.095 69.7096L154.706 72.2035L158.103 72.684L159.182 75.6584L158.388 77.6718L156.076 78.6556L150.397 77.7976L150.242 77.157L152.926 75.4296L151.072 72.2721L145.988 71.6315L143.285 69.4922L144.445 68.2452Z" stroke="#263238" stroke-linecap="round" stroke-linejoin="round"/>
<path d="M206.091 133.367L200.021 132.418L192.699 131.56L187.311 132.664L182.035 132.733L176.746 135.021L173.646 135.821L171.737 136.21L168.55 138.882L165.419 140.861L160.068 139.099L160.205 134.357L156.974 133.842L153.502 134.552L152.634 133.213L152.287 130.256L150.681 128.9L148.325 129.724L148.015 131.468L145.101 132.235L141.797 129.884L139.825 126.246L141.357 121.224L146.472 120.509L148.133 121.35L150.216 120.921L152.479 118.942L154.891 119.119L159.231 123.449L160.409 123.043L159.169 119.422L157.663 117.706L157.278 114.589L163.088 110.705L162.53 104.596L164.811 101.936L166.181 97.7891L167.843 97.1084L171.265 93.888L171.129 92.5667L168.382 93.2989L167.558 92.1206L165.642 92.5152L162.84 93.7622L163.732 91.3884L169.43 88.5284L170.472 86.8124L173.758 89.8383L175.667 90.9823L177.949 89.8383L176.399 87.9678L172.171 86.309L166.956 82.837L161.953 81.0009L157.613 81.2125L155.059 79.7139L152.126 79.6452L151.934 80.3602L152.703 85.0792L153.788 86.5436L153.459 91.9947L149.361 90.1414V87.7848L145.294 86.944L143.303 85.5025L143.21 81.3098L147.439 76.9111L146.862 72.9929L145.002 73.5649L143.44 72.3694L142.342 70.0814L141.102 70.1672L141.028 72.8785L139.168 73.5878L136.948 68.1538L135.361 67.639L132.695 67.1756L130.215 69.0289L134.431 71.3627L135.783 73.9424L128.479 70.8994L123.091 67.4674L121.703 63.2117L116.873 62.8513L113.897 65.6484C113.168 66.2939 112.4 66.9012 111.597 67.4674C110.299 68.0562 108.956 68.5571 107.579 68.966L107.542 71.826L103.58 72.8041L104.355 74.5201L111.02 74.1655L115.131 76.8596L116.482 82.4709L115.769 87.8363L117.387 93.0529L114.405 101.816L116.185 113.736L119.371 120.149L122.862 124.822L125.547 124.604L124.059 122.219L122.199 120.578L120.487 117.26L121.975 116.619L125.801 121.899L128.777 126.675L129.775 130.839L133.966 133.854L140.842 136.651L150.421 137.045L153.781 138.882L156.485 141.021L160.043 142.165L164.098 142.342L167.88 141.398C167.88 141.398 168.097 143.04 168.289 143.841C168.482 144.642 166.702 147.845 166.702 147.845L165.561 151.443L167.806 154.692L171.978 155.349L178.6 159.353L181.266 159.817L181.843 162.225L182.419 163.283C195.457 158.492 206.771 150.415 215.068 139.974L214.876 138.796L217.679 129.976L215.068 128.997L206.091 133.367Z" stroke="#263238" stroke-linecap="round" stroke-linejoin="round"/>
<path d="M208.918 66.312L206.271 63.6579L202.991 60.632L201.131 55.9645L204.374 55.8043L204.163 54.1627L201.863 54.4658L203.586 53.2761L205.397 51.726L205.012 50.1187L202.309 47.9794L201.038 44.616C188.191 35.2805 172.39 30.072 156.039 29.7829C139.688 29.4938 123.682 34.1399 110.456 43.0144L115.094 44.8105L113.339 48.1967L110.239 49.5123L110.933 53.9167L109.619 54.6832L108.305 56.7996L109.173 59.6596L112.204 59.3736L111.646 62.348L114.604 61.7417L118.212 54.7747L118.119 52.1035L122.906 50.7879L123.662 48.6143L128.585 47.0985L128.455 44.2385L132.063 43.329C132.063 43.329 134.363 41.51 134.884 41.4014C135.938 41.3993 136.99 41.4662 138.034 41.6016L141.103 42.9915L144.754 42.2422L147.458 39.8398L151.531 39.3364C152.19 39.5717 152.9 39.658 153.602 39.5881C154.47 39.4108 156.807 37.752 156.807 37.752L162.542 39.6053L164.979 40.6234L165.555 43.0316L168.24 42.8142L168.761 41.1954L171.241 41.6931L171.377 43.0144L166.467 45.3653L170.274 48.2882L177.304 50.2102L180.683 52.8871L184.583 52.4238L185.067 50.6392L186.381 50.0328L181.093 47.7449L178.253 48.048L180.355 46.904L177.614 44.616L180.528 43.8495L184.819 44.9935L186.611 48.66L189.029 50.376L191.713 54.7061L196.152 56.4907L197.43 61.7817L202.005 63.3719L202.253 65.168V67.3644L203.995 70.0357L204.69 71.4085L207.759 71.2827L208.49 68.2739L208.918 66.312Z" stroke="#263238" stroke-linecap="round" stroke-linejoin="round"/>
<path d="M207.288 49.6896L207.512 50.6105L207.264 53.3561L208.324 55.4839L210.388 55.7356L211.12 58.7787L208.845 58.4069L210.407 67.1756L209.167 71.1281L211.647 75.3381L214.369 76.7966L216.458 85.4567L220.339 91.7487L224.004 96.3819L228.238 96.5249L228.858 93.03L229.329 92.5038C227.654 76.2928 219.857 61.1407 207.301 49.6953L207.288 49.6896Z" stroke="#263238" stroke-linecap="round" stroke-linejoin="round"/>
<path d="M166.895 56.9139L154.297 54.6145L149.3 55.81L148.816 59.1047L146.225 57.4459L142.598 59.0303L143.521 64.3957L147.155 65.8429L148.68 62.3308L151.867 64.2012L158.296 67.4273L160.46 71.866L166.251 76.2304L173.281 73.6106L172.531 71.2425L170.312 68.8344L168.414 62.4909L169.499 59.4079L166.895 56.9139Z" stroke="#263238" stroke-linecap="round" stroke-linejoin="round"/>
<path d="M177.132 58.5213L174.366 58.4126L172.531 60.6434L174.869 65.0421L177.125 64.5788L177.132 58.5213Z" stroke="#263238" stroke-linecap="round" stroke-linejoin="round"/>
<path d="M194.025 58.2582L187.422 56.5822L185.742 54.9062L184.465 55.6727L186.455 58.63L188.501 62.5882L191.341 63.0115L191.706 62.2679L189.567 60.1801L194.472 60.8551L194.025 58.2582Z" stroke="#263238" stroke-linecap="round" stroke-linejoin="round"/>
<path d="M157.203 126.549L156.664 127.339L162.225 127.71L164.854 129.529L168.233 129.175L169.027 127.161L164.873 127.339L157.203 126.549Z" stroke="#263238" stroke-linecap="round" stroke-linejoin="round"/>
<path d="M173.411 126.429L169.988 128.139L170.819 129.318L175.339 128.391L175.903 126.927L174.372 127.407L173.411 126.429Z" stroke="#263238" stroke-linecap="round" stroke-linejoin="round"/>
<path d="M181.491 249.787L179.978 256.925C179.978 256.925 179.792 259.019 180.734 259.711C181.677 260.403 198.094 260.409 198.094 259.711C198.094 259.013 198.472 256.576 197.908 255.186C197.344 253.796 196.017 249.089 196.017 249.089L181.491 249.787Z" fill="white" stroke="#263238" stroke-miterlimit="10"/>
<path d="M180.113 258.67C180.194 259.069 180.411 259.434 180.733 259.711C181.676 260.409 198.093 260.409 198.093 259.711C198.093 259.499 198.13 259.139 198.161 258.67H180.113Z" fill="white" stroke="#263238" stroke-miterlimit="10"/>
<path d="M186.393 249.609C186.393 249.609 184.695 252.921 186.207 253.613C187.72 254.305 191.868 254.654 192.624 253.436C193.381 252.218 191.682 249.604 191.682 249.604L186.393 249.609Z" fill="white" stroke="#263238" stroke-miterlimit="10"/>
<path d="M153.169 248.248L149.208 252.252C149.208 252.252 142.388 258.001 142.791 258.698C143.078 259.257 143.331 259.829 143.547 260.414H165.631C165.631 260.414 166.952 259.368 166.952 258.847C166.952 258.327 166.574 251.531 166.574 251.531L153.169 248.248Z" fill="white" stroke="#263238" stroke-miterlimit="10"/>
<path d="M142.883 258.853C143.23 259.539 143.546 260.409 143.546 260.409H165.631C166.15 260.012 166.586 259.529 166.914 258.984L142.883 258.853Z" fill="white" stroke="#263238" stroke-miterlimit="10"/>
<path d="M153.925 249.609L150.905 252.395C149.585 253.619 150.527 255.009 153.168 254.489C155.81 253.968 158.457 250.485 158.457 250.485L153.925 249.609Z" stroke="#263238" stroke-miterlimit="10"/>
<path d="M157.818 175.524C157.818 175.524 153.732 202.408 153.732 205.474C153.732 208.54 157.074 244.816 157.074 244.816L154.104 246.698L154.29 250.13C154.29 250.13 166.535 252.012 167.465 252.012C167.984 252.024 168.496 251.905 168.947 251.669L168.575 246.704C168.575 246.704 169.871 241.058 169.871 239.691C169.871 238.324 168.389 206.658 168.389 206.658L173.399 187.662L175.067 186.638L175.253 207.001L182.488 244.141L181.378 248.42L183.046 250.982C183.046 250.982 187.312 250.645 191.577 250.645C195.843 250.645 197.883 249.272 197.883 249.272L197.145 241.401L190.647 205.119C190.647 205.119 194.733 175.169 194.733 174.317C194.733 173.465 193.803 172.258 193.803 172.258L157.818 175.524Z" fill="#263238" stroke="#263238" stroke-miterlimit="10"/>
<path d="M155.543 121.012L156.163 123.541C156.163 123.541 146.41 129.587 145.499 131.268C144.587 132.95 152.046 150.802 154.637 157.969C157.229 165.136 157.682 168.786 157.682 168.786L156.919 177.217C156.919 177.217 162.865 179.465 171.694 179.608C180.522 179.751 186.927 177.778 189.364 177.217C191.8 176.657 195.303 174.409 195.303 174.409C195.303 174.409 194.999 172.441 192.712 163.729C191.364 158.634 190.296 153.48 189.512 148.285C189.512 148.285 185.557 129.735 183.424 127.064C181.291 124.393 180.07 121.167 177.633 120.601C175.197 120.034 166.368 120.32 166.368 120.32L163.007 115.544L155.543 121.012Z" fill="white" stroke="#263238" stroke-miterlimit="10"/>
<path d="M163.466 131.131C168.023 129.93 168.327 123.729 168.128 120.263C167.062 120.263 166.361 120.303 166.361 120.303L163.007 115.544L155.567 121.024L156.187 123.552C156.187 123.552 155.226 124.124 153.881 125.016C154.991 127.184 158.351 132.475 163.466 131.131Z" fill="white" stroke="#263238" stroke-miterlimit="10"/>
<path d="M156.156 123.552C156.581 124.025 157.144 124.375 157.777 124.563C158.411 124.75 159.09 124.767 159.734 124.61C161.891 124.038 165.233 115.115 165.233 115.115L156.156 123.552Z" fill="#263238" stroke="#263238" stroke-miterlimit="10"/>
<path d="M146.492 130.204C146.492 130.204 144.787 130.496 144.012 135.352C143.237 140.209 141.215 155.716 141.99 158.009C142.765 160.303 146.814 160.732 148.364 159.153C149.914 157.575 150.54 144.979 150.54 144.979L149.92 141.822" fill="white"/>
<path d="M146.492 130.204C146.492 130.204 144.787 130.496 144.012 135.352C143.237 140.209 141.215 155.716 141.99 158.009C142.765 160.303 146.814 160.732 148.364 159.153C149.914 157.575 150.54 144.979 150.54 144.979L149.92 141.822" stroke="#263238" stroke-miterlimit="10"/>
<path d="M142.611 145.86C141.991 151.26 141.55 156.728 141.991 158.015C142.772 160.303 146.814 160.738 148.364 159.159C149.325 158.187 149.933 152.976 150.255 149.155L142.611 145.86Z" fill="white" stroke="#263238" stroke-miterlimit="10"/>
<path d="M181.465 134.655C181.465 134.655 190.944 146.409 193.431 147.845C195.917 149.281 201.98 146.701 201.05 143.114C200.12 139.528 183.176 123.466 181.155 121.459C179.133 119.451 172.475 120.315 172.475 120.315" fill="white"/>
<path d="M181.465 134.655C181.465 134.655 190.944 146.409 193.431 147.845C195.917 149.281 201.98 146.701 201.05 143.114C200.12 139.528 183.176 123.466 181.155 121.459C179.133 119.451 172.475 120.315 172.475 120.315" stroke="#263238" stroke-miterlimit="10"/>
<path d="M192.551 132.767L185.93 140.026C188.744 143.326 192.099 147.073 193.432 147.845C195.912 149.281 201.981 146.701 201.051 143.114C200.617 141.456 196.767 137.131 192.551 132.767Z" fill="white" stroke="#263238" stroke-miterlimit="10"/>
<path d="M169.138 142.58L164.182 144.969L166.126 148.401L171.082 146.012L169.138 142.58Z" fill="white" stroke="#263238" stroke-miterlimit="10"/>
<path d="M180.218 147.576C180.218 147.576 176.802 144.716 173.398 144.996C169.994 145.277 163.918 147.576 163.143 150.144C162.368 152.713 165.623 167.785 170.447 169.215C175.271 170.645 184.124 166.635 185.525 162.477C186.927 158.318 184.571 151.717 180.218 147.576ZM183.796 160.16C183.021 162.168 174.626 152.152 174.781 149.292C174.936 146.432 177.112 148.428 177.112 148.428C181.154 152.289 184.571 158.17 183.796 160.16Z" fill="#54C5C7" stroke="#263238" stroke-miterlimit="10"/>
<path d="M175.185 156.19C176.469 160.006 175.415 163.701 172.83 164.439C170.244 165.176 167.113 162.683 165.83 158.862C164.546 155.041 165.6 151.346 168.186 150.608C170.771 149.87 173.902 152.369 175.185 156.19Z" fill="white" stroke="#263238" stroke-miterlimit="10"/>
<path d="M196.078 141.822C196.078 141.822 192.036 144.402 191.571 145.122C191.106 145.843 189.24 146.552 189.24 146.552C187.696 146.187 186.187 145.709 184.726 145.122C182.711 144.259 182.246 143.544 181.626 143.978C181.006 144.413 176.666 149 176.666 149.698C176.666 150.396 180.708 154.274 181.173 154.572C181.638 154.869 184.745 153.714 185.681 153.285C186.617 152.856 187.857 152.421 187.857 152.421C187.857 152.421 193.766 152.707 197.027 151.992C200.288 151.277 203.555 149.412 203.555 146.541C203.555 143.669 198.738 140.249 198.738 140.249" fill="white"/>
<path d="M196.078 141.822C196.078 141.822 192.036 144.402 191.571 145.122C191.106 145.843 189.24 146.552 189.24 146.552C187.696 146.187 186.187 145.709 184.726 145.122C182.711 144.259 182.246 143.544 181.626 143.978C181.006 144.413 176.666 149 176.666 149.698C176.666 150.396 180.708 154.274 181.173 154.572C181.638 154.869 184.745 153.714 185.681 153.285C186.617 152.856 187.857 152.421 187.857 152.421C187.857 152.421 193.766 152.707 197.027 151.992C200.288 151.277 203.555 149.412 203.555 146.541C203.555 143.669 198.738 140.249 198.738 140.249" stroke="#263238" stroke-miterlimit="10"/>
<path d="M177.889 151.002L182.396 146.266" stroke="#263238" stroke-miterlimit="10"/>
<path d="M179.289 152.718L183.641 148.131" stroke="#263238" stroke-miterlimit="10"/>
<path d="M180.689 153.725L185.042 150.139" stroke="#263238" stroke-miterlimit="10"/>
<path d="M161.66 173.893L161.805 178.467C161.818 178.873 161.655 179.267 161.353 179.563C161.05 179.859 160.633 180.032 160.193 180.044L144.947 180.454C144.485 180.466 144.037 180.309 143.701 180.016C143.365 179.724 143.168 179.32 143.155 178.894L143.016 174.508C143.003 174.082 143.173 173.669 143.49 173.359C143.807 173.049 144.245 172.867 144.707 172.855L159.952 172.445C160.385 172.433 160.806 172.578 161.125 172.848C161.445 173.119 161.637 173.493 161.66 173.893Z" fill="white" stroke="#263238" stroke-miterlimit="10"/>
<path d="M164.261 177.402L164.18 174.823L161.695 174.89L161.776 177.469L164.261 177.402Z" fill="white" stroke="#263238" stroke-miterlimit="10"/>
<path d="M149.003 157.163C149.003 157.163 150.398 158.879 150.038 164.599C150.043 165.46 150.107 166.319 150.23 167.173C151.484 168.077 152.813 168.888 154.205 169.598C156.176 170.553 157.081 170.456 157.088 171.171C157.094 171.886 155.804 177.869 155.19 178.31C154.577 178.75 148.786 178.15 148.253 177.984C147.719 177.818 146.814 174.843 146.616 173.9C146.465 172.537 146.388 171.168 146.386 169.798C144.816 168.071 143.477 166.176 142.4 164.153C141.023 161.327 139.883 157.826 142.35 156.076C142.745 155.826 143.192 155.653 143.662 155.567C144.132 155.481 144.616 155.485 145.084 155.578" fill="white"/>
<path d="M149.003 157.163C149.003 157.163 150.398 158.879 150.038 164.599C150.043 165.46 150.107 166.319 150.23 167.173C151.484 168.077 152.813 168.888 154.205 169.598C156.176 170.553 157.081 170.456 157.088 171.171C157.094 171.886 155.804 177.869 155.19 178.31C154.577 178.75 148.786 178.15 148.253 177.984C147.719 177.818 146.814 174.843 146.616 173.9C146.465 172.537 146.388 171.168 146.386 169.798C144.816 168.071 143.477 166.176 142.4 164.153C141.023 161.327 139.883 157.826 142.35 156.076C142.745 155.826 143.192 155.653 143.662 155.567C144.132 155.481 144.616 155.485 145.084 155.578" stroke="#263238" stroke-miterlimit="10"/>
<path d="M153.324 178.184L154.645 172" stroke="#263238" stroke-miterlimit="10"/>
<path d="M150.992 178.212L152.282 172.229" stroke="#263238" stroke-miterlimit="10"/>
<path d="M149.275 177.801L149.703 172.429" stroke="#263238" stroke-miterlimit="10"/>
<path d="M167.541 100.403C167.541 100.403 169.215 99.4308 169.401 102.531C169.587 105.631 166.257 109.103 166.257 109.103C166.095 111.127 165.744 113.135 165.209 115.104C164.372 118.004 160.491 123.215 157.559 123.409C154.626 123.603 148.017 118.776 146.758 116.265C145.5 113.754 146.138 109.298 143.819 106.398C141.501 103.498 146.337 99.4308 150.112 97.3029C153.888 95.1751 160.175 94.0197 161.855 94.5974C163.535 95.1751 167.541 100.403 167.541 100.403Z" fill="white" stroke="#263238" stroke-miterlimit="10"/>
<path d="M151.694 112.272C151.538 112.546 151.457 112.85 151.457 113.159C151.457 113.468 151.538 113.772 151.694 114.045C152.208 115.104 154 114.749 154.384 113.925" stroke="#263238" stroke-miterlimit="10"/>
<path d="M152.207 116.288C152.207 116.288 157.074 116.408 158.996 113.096" stroke="#263238" stroke-miterlimit="10"/>
<path d="M156.908 108.88C157.199 109.612 157.168 110.299 156.834 110.413C156.499 110.528 155.997 110.019 155.705 109.269C155.414 108.52 155.445 107.845 155.78 107.736C156.114 107.628 156.617 108.142 156.908 108.88Z" fill="#263238"/>
<path d="M149.988 110.436C150.267 111.174 150.224 111.86 149.889 111.969C149.554 112.078 149.058 111.563 148.779 110.825C148.5 110.087 148.544 109.401 148.879 109.292C149.213 109.183 149.709 109.698 149.988 110.436Z" fill="#263238"/>
<path d="M146.957 108.371C146.957 108.371 146.957 106.953 149.518 107.073" stroke="#263238" stroke-miterlimit="10"/>
<path d="M153.875 106.392C153.875 106.392 155.406 104.974 157.074 106.158" stroke="#263238" stroke-miterlimit="10"/>
<path d="M141.122 96.9197C141.122 96.9197 134.413 95.3696 133.992 98.2754C133.57 101.181 138.605 102.337 138.605 102.337C138.605 102.337 132.312 102.142 136.087 105.237C139.863 108.331 150.763 105.626 154.749 103.686C157.285 102.374 159.441 100.518 161.036 98.2754C161.036 98.2754 159.362 100.786 161.656 102.531L163.963 104.247L164.173 106.764L166.033 106.569L165.413 102.891C165.413 102.891 166.877 100.38 167.509 100.38C168.141 100.38 170.442 99.6024 166.889 93.0244C163.336 86.4464 156.405 86.0632 150.149 88.3855C143.893 90.7078 141.122 96.9197 141.122 96.9197Z" fill="#263238" stroke="#263238" stroke-miterlimit="10"/>
<path d="M198.367 260.397C198.153 260.398 197.941 260.36 197.743 260.285C197.546 260.21 197.366 260.1 197.214 259.96C197.063 259.821 196.943 259.656 196.861 259.473C196.779 259.291 196.736 259.096 196.736 258.899V253.093C196.736 252.694 196.908 252.311 197.214 252.029C197.52 251.747 197.934 251.589 198.367 251.589C198.581 251.588 198.793 251.627 198.99 251.703C199.187 251.779 199.367 251.89 199.518 252.029C199.669 252.169 199.788 252.335 199.869 252.518C199.951 252.7 199.992 252.896 199.991 253.093V258.899C199.991 259.296 199.82 259.677 199.516 259.958C199.211 260.239 198.798 260.397 198.367 260.397Z" fill="#263238" stroke="#263238" stroke-miterlimit="10"/>
<path d="M237.96 260.397C237.53 260.397 237.116 260.239 236.812 259.958C236.507 259.677 236.336 259.296 236.336 258.899V253.093C236.335 252.896 236.377 252.7 236.458 252.518C236.539 252.335 236.659 252.169 236.81 252.029C236.96 251.89 237.14 251.779 237.337 251.703C237.535 251.627 237.747 251.588 237.96 251.589C238.393 251.589 238.808 251.747 239.113 252.029C239.419 252.311 239.591 252.694 239.591 253.093V258.899C239.591 259.096 239.549 259.291 239.467 259.473C239.385 259.656 239.264 259.821 239.113 259.96C238.961 260.1 238.782 260.21 238.584 260.285C238.386 260.36 238.174 260.398 237.96 260.397Z" fill="#263238" stroke="#263238" stroke-miterlimit="10"/>
<path d="M200.426 254.094V257.326C200.426 258.104 200.761 258.85 201.357 259.401C201.954 259.951 202.763 260.26 203.607 260.26H233.038C233.456 260.261 233.87 260.185 234.256 260.038C234.642 259.891 234.993 259.675 235.289 259.402C235.584 259.13 235.819 258.806 235.978 258.449C236.138 258.093 236.219 257.711 236.219 257.326V254.094C236.219 253.487 236.48 252.905 236.945 252.476C237.41 252.047 238.041 251.806 238.699 251.806H239.554C240.062 251.806 240.55 251.629 240.923 251.311C241.295 250.993 241.524 250.557 241.563 250.09L247.261 185.328H190.221L195.912 250.09C195.948 250.557 196.175 250.993 196.547 251.312C196.919 251.631 197.408 251.807 197.915 251.806C198.243 251.802 198.569 251.858 198.873 251.972C199.178 252.085 199.455 252.253 199.689 252.466C199.922 252.679 200.108 252.932 200.234 253.212C200.361 253.491 200.426 253.791 200.426 254.094Z" fill="#81888C" stroke="#263238" stroke-miterlimit="10"/>
<path d="M245.983 183.143H192.619V185.345H245.983V183.143Z" fill="#81888C" stroke="#263238" stroke-miterlimit="10"/>
<path d="M249.108 184.842H188.59V190.087H249.108V184.842Z" fill="#81888C" stroke="#263238" stroke-miterlimit="10"/>
<path d="M223.805 197.872C224.367 198.001 224.888 198.252 225.324 198.604C225.657 198.909 225.944 199.254 226.18 199.628C226.688 200.423 227.147 201.252 227.643 202.093L229.664 201.132L229.695 201.161C229.379 201.653 229.075 202.145 228.734 202.637C227.934 203.855 227.134 205.062 226.341 206.28C226.308 206.348 226.254 206.404 226.185 206.442C226.116 206.48 226.036 206.497 225.956 206.492C223.898 206.463 221.84 206.452 219.756 206.429H219.552L221.368 205.342L220.488 203.849C219.868 202.768 219.248 201.681 218.554 200.618C217.869 199.412 216.742 198.471 215.373 197.963H216.793C217.01 197.963 217.227 197.935 217.444 197.918L223.805 197.872Z" fill="white"/>
<path d="M204.275 211.92L206.352 208.099L204.48 206.721H204.771L211.071 206.681C211.155 206.672 211.24 206.689 211.313 206.729C211.386 206.769 211.443 206.831 211.474 206.904C212.503 208.683 213.551 210.456 214.574 212.229C214.614 212.302 214.649 212.376 214.679 212.452L212.751 211.491L211.672 213.116L210.308 215.175C210.277 215.244 210.221 215.302 210.15 215.338C210.08 215.374 209.997 215.387 209.917 215.375C209.031 215.344 208.148 215.27 207.27 215.152C206.583 215.041 205.943 214.753 205.425 214.322C204.906 213.891 204.529 213.334 204.337 212.715C204.328 212.69 204.313 212.667 204.294 212.647L204.275 211.92Z" fill="white"/>
<path d="M233.335 212.727C232.796 214.34 231.351 214.837 229.783 215.118C229.038 215.225 228.286 215.28 227.532 215.284C227.464 215.282 227.398 215.267 227.337 215.238C227.277 215.209 227.225 215.168 227.185 215.118C226.218 213.493 225.269 211.857 224.314 210.221C224.288 210.175 224.266 210.127 224.246 210.078L230.446 206.572L230.948 207.487C231.63 208.723 232.312 209.953 232.988 211.188C233.112 211.411 233.205 211.64 233.31 211.869L233.335 212.727Z" fill="white"/>
<path d="M222.845 213.808C222.876 214.38 222.913 214.906 222.931 215.461C222.931 215.678 222.987 215.77 223.26 215.77C224.909 215.77 226.565 215.77 228.22 215.77C229.258 215.803 230.292 215.623 231.246 215.244C231.754 215.015 232.219 214.706 232.684 214.443C232.566 214.66 232.417 214.923 232.269 215.181C231.177 217.068 230.08 218.962 228.983 220.844C228.704 221.353 228.273 221.778 227.742 222.07C227.21 222.362 226.6 222.508 225.982 222.491C224.971 222.491 223.967 222.491 222.882 222.491V224.596H222.776L222.014 223.315C221.233 221.993 220.445 220.672 219.67 219.345C219.644 219.289 219.631 219.228 219.631 219.168C219.631 219.107 219.644 219.046 219.67 218.99C220.681 217.274 221.71 215.587 222.733 213.882C222.756 213.847 222.78 213.812 222.807 213.779L222.845 213.808Z" fill="white"/>
<path d="M204.809 214.34C205.361 214.813 206.012 215.178 206.721 215.413C207.431 215.648 208.185 215.748 208.938 215.707C211.604 215.707 214.264 215.707 216.93 215.741C217.071 215.745 217.212 215.757 217.351 215.776V222.508H217.178C215.423 222.508 213.675 222.508 211.92 222.508C210.901 222.541 209.908 222.214 209.142 221.593C209.009 221.476 208.896 221.341 208.808 221.192C207.499 218.979 206.197 216.754 204.889 214.534C204.858 214.449 204.833 214.391 204.809 214.34Z" fill="white"/>
<path d="M215.499 206.995L209.23 203.563L209.801 202.745C210.681 201.493 211.555 200.24 212.442 198.993C212.72 198.645 213.107 198.385 213.55 198.245C213.993 198.106 214.472 198.096 214.922 198.215C215.582 198.4 216.184 198.73 216.677 199.176C217.537 199.928 218.239 200.82 218.747 201.807C218.769 201.852 218.78 201.901 218.78 201.95C218.78 202 218.769 202.048 218.747 202.093C217.698 203.683 216.642 205.274 215.579 206.864L215.499 206.995Z" fill="white"/>
<path d="M213.333 230.207V230.682H212.713V230.173C212.713 229.675 212.496 229.372 212.006 229.372C211.517 229.372 211.3 229.675 211.3 230.173V233.124C211.3 233.622 211.523 233.925 212.006 233.925C212.49 233.925 212.713 233.622 212.713 233.124V232.009H212.093V231.437H213.333V233.079C213.333 233.925 212.899 234.48 211.969 234.48C211.039 234.48 210.611 233.908 210.611 233.079V230.219C210.611 229.372 211.045 228.817 211.969 228.817C212.893 228.817 213.333 229.372 213.333 230.207Z" fill="white"/>
<path d="M213.973 234.434V228.857H214.648V233.874H216.378V234.446L213.973 234.434Z" fill="white"/>
<path d="M217.568 233.313L217.333 234.457H216.713L217.872 228.88H218.846L220.005 234.457H219.36L219.125 233.313H217.568ZM217.655 232.781H219.001L218.319 229.561L217.655 232.781Z" fill="white"/>
<path d="M223.148 230.196V230.35H222.528V230.167C222.528 229.664 222.317 229.372 221.834 229.372C221.35 229.372 221.146 229.664 221.146 230.156C221.146 231.408 223.173 231.528 223.173 233.096C223.173 233.942 222.733 234.491 221.809 234.491C220.885 234.491 220.451 233.919 220.451 233.096V232.804H221.071V233.153C221.071 233.656 221.294 233.948 221.778 233.948C222.262 233.948 222.491 233.656 222.491 233.153C222.491 231.912 220.47 231.792 220.47 230.219C220.47 229.361 220.898 228.829 221.809 228.829C222.72 228.829 223.148 229.372 223.148 230.196Z" fill="white"/>
<path d="M226.361 230.196V230.35H225.741V230.167C225.741 229.664 225.536 229.372 225.053 229.372C224.569 229.372 224.358 229.664 224.358 230.156C224.358 231.408 226.392 231.528 226.392 233.096C226.392 233.942 225.945 234.491 225.022 234.491C224.098 234.491 223.67 233.919 223.67 233.096V232.804H224.29V233.153C224.29 233.656 224.519 233.948 225.003 233.948C225.487 233.948 225.71 233.656 225.71 233.153C225.71 231.912 223.689 231.792 223.689 230.219C223.689 229.361 224.123 228.829 225.028 228.829C225.933 228.829 226.361 229.372 226.361 230.196Z" fill="white"/>
<path d="M134.197 260.397C133.983 260.398 133.771 260.36 133.573 260.285C133.376 260.21 133.196 260.1 133.044 259.96C132.893 259.821 132.773 259.656 132.691 259.473C132.609 259.291 132.566 259.096 132.566 258.899V253.093C132.566 252.694 132.738 252.311 133.044 252.029C133.35 251.747 133.765 251.589 134.197 251.589C134.628 251.59 135.042 251.749 135.346 252.031C135.65 252.313 135.821 252.695 135.821 253.093V258.899C135.821 259.296 135.65 259.677 135.346 259.958C135.041 260.239 134.628 260.397 134.197 260.397Z" fill="#263238" stroke="#263238" stroke-miterlimit="10"/>
<path d="M173.785 260.397C173.354 260.397 172.941 260.239 172.636 259.958C172.331 259.677 172.16 259.296 172.16 258.899V253.093C172.159 252.896 172.201 252.7 172.282 252.518C172.363 252.335 172.483 252.169 172.634 252.029C172.785 251.89 172.964 251.779 173.161 251.703C173.359 251.627 173.571 251.588 173.785 251.589C173.998 251.588 174.21 251.627 174.408 251.703C174.605 251.779 174.784 251.89 174.935 252.029C175.086 252.169 175.206 252.335 175.287 252.518C175.368 252.7 175.41 252.896 175.409 253.093V258.899C175.409 259.296 175.238 259.677 174.933 259.958C174.629 260.239 174.215 260.397 173.785 260.397Z" fill="#263238" stroke="#263238" stroke-miterlimit="10"/>
<path d="M136.281 254.094V257.326C136.281 258.104 136.616 258.85 137.212 259.401C137.809 259.951 138.618 260.26 139.461 260.26H168.893C169.736 260.26 170.545 259.951 171.142 259.401C171.738 258.85 172.073 258.104 172.073 257.326V254.094C172.073 253.487 172.335 252.905 172.8 252.476C173.265 252.047 173.896 251.806 174.553 251.806H175.415C175.922 251.807 176.411 251.631 176.783 251.312C177.155 250.993 177.382 250.557 177.418 250.09L183.091 185.328H126.051L131.736 250.09C131.775 250.557 132.004 250.993 132.376 251.311C132.749 251.629 133.237 251.806 133.745 251.806C134.075 251.799 134.404 251.853 134.711 251.965C135.019 252.077 135.299 252.244 135.535 252.458C135.771 252.671 135.959 252.925 136.087 253.206C136.215 253.487 136.281 253.789 136.281 254.094Z" fill="#54C5C7" stroke="#263238" stroke-miterlimit="10"/>
<path d="M181.807 183.143H128.443V185.345H181.807V183.143Z" fill="#54C5C7" stroke="#263238" stroke-miterlimit="10"/>
<path d="M184.932 184.842H124.414V190.087H184.932V184.842Z" fill="#54C5C7" stroke="#263238" stroke-miterlimit="10"/>
<path d="M159.636 197.872C160.197 198.004 160.717 198.254 161.155 198.604C161.486 198.902 161.775 199.236 162.017 199.599C162.525 200.394 162.984 201.224 163.48 202.065L165.501 201.104L165.532 201.132L164.565 202.608C163.771 203.826 162.972 205.033 162.178 206.252C162.145 206.319 162.091 206.376 162.022 206.413C161.953 206.451 161.874 206.469 161.794 206.463C159.735 206.435 157.671 206.423 155.594 206.4H155.389L157.206 205.314C156.902 204.805 156.617 204.313 156.325 203.821C155.705 202.74 155.085 201.653 154.391 200.589C153.714 199.377 152.591 198.427 151.223 197.912H152.649C152.866 197.912 153.083 197.883 153.269 197.866L159.636 197.872Z" fill="white"/>
<path d="M140.106 211.92L142.177 208.099L140.274 206.721H140.571L146.87 206.681C146.955 206.672 147.04 206.689 147.113 206.729C147.186 206.769 147.242 206.831 147.273 206.904C148.303 208.681 149.336 210.456 150.373 212.229C150.404 212.281 150.423 212.338 150.479 212.452L148.551 211.491L147.472 213.116C147.013 213.802 146.554 214.489 146.108 215.175C146.077 215.244 146.021 215.302 145.95 215.338C145.879 215.374 145.797 215.387 145.717 215.375C144.829 215.344 143.943 215.27 143.064 215.152C142.377 215.04 141.739 214.752 141.222 214.321C140.704 213.89 140.329 213.334 140.137 212.715C140.128 212.69 140.113 212.667 140.094 212.647L140.106 211.92Z" fill="white"/>
<path d="M169.14 212.727C168.601 214.34 167.156 214.837 165.582 215.118C164.837 215.225 164.085 215.28 163.331 215.284C163.264 215.282 163.199 215.266 163.14 215.237C163.081 215.208 163.029 215.167 162.99 215.118C162.023 213.493 161.064 211.861 160.113 210.221L160.045 210.078L166.245 206.572L166.753 207.487C167.435 208.723 168.117 209.953 168.793 211.188C168.911 211.411 169.01 211.64 169.116 211.869L169.14 212.727Z" fill="white"/>
<path d="M158.669 213.808C158.669 214.38 158.744 214.906 158.762 215.461C158.762 215.678 158.818 215.77 159.085 215.77C160.74 215.77 162.396 215.77 164.045 215.77C165.083 215.803 166.117 215.623 167.07 215.244C167.579 215.015 168.044 214.706 168.509 214.443C168.385 214.66 168.242 214.923 168.093 215.181C166.996 217.068 165.905 218.962 164.807 220.844C164.527 221.353 164.095 221.778 163.563 222.07C163.031 222.361 162.419 222.507 161.8 222.491C160.796 222.491 159.792 222.491 158.7 222.491V224.596H158.595L157.832 223.315C157.051 221.993 156.264 220.672 155.489 219.345C155.461 219.289 155.447 219.229 155.447 219.168C155.447 219.106 155.461 219.046 155.489 218.99C156.497 217.286 157.516 215.583 158.545 213.882L158.626 213.779L158.669 213.808Z" fill="white"/>
<path d="M140.621 214.34C141.174 214.814 141.826 215.18 142.537 215.415C143.248 215.65 144.003 215.749 144.756 215.707C147.422 215.707 150.082 215.707 152.742 215.741C152.883 215.745 153.024 215.756 153.164 215.776V222.508H152.996C151.242 222.508 149.487 222.508 147.739 222.508C146.72 222.541 145.726 222.214 144.961 221.593C144.828 221.476 144.715 221.341 144.626 221.192C143.318 218.979 142.016 216.754 140.708 214.534L140.621 214.34Z" fill="white"/>
<path d="M151.329 206.995L145.061 203.563C145.259 203.283 145.439 202.991 145.631 202.745C146.511 201.493 147.386 200.24 148.272 198.993C148.55 198.645 148.937 198.385 149.38 198.245C149.823 198.106 150.302 198.096 150.752 198.215C151.412 198.4 152.014 198.73 152.507 199.176C153.367 199.928 154.069 200.82 154.578 201.807C154.599 201.852 154.61 201.901 154.61 201.95C154.61 202 154.599 202.048 154.578 202.093L151.409 206.864L151.329 206.995Z" fill="white"/>
<path d="M146.449 228.857C147.404 228.857 147.807 229.378 147.807 230.224V230.893C147.807 231.774 147.36 232.238 146.399 232.238H145.779V234.434H145.104V228.857H146.449ZM146.399 231.683C146.902 231.683 147.143 231.466 147.143 230.934V230.19C147.143 229.681 146.945 229.423 146.449 229.423H145.829V231.711L146.399 231.683Z" fill="white"/>
<path d="M148.334 234.434V228.857H149.01V233.874H150.733V234.446L148.334 234.434Z" fill="white"/>
<path d="M151.93 233.313L151.694 234.457H151.074L152.234 228.88H153.207L154.366 234.457H153.691L153.455 233.313H151.93ZM152.017 232.781H153.362L152.68 229.561L152.017 232.781Z" fill="white"/>
<path d="M157.51 230.196V230.35H156.89V230.167C156.89 229.664 156.679 229.372 156.195 229.372C155.711 229.372 155.507 229.664 155.507 230.156C155.507 231.408 157.534 231.528 157.534 233.096C157.534 233.942 157.094 234.491 156.17 234.491C155.247 234.491 154.812 233.919 154.812 233.096V232.804H155.433V233.153C155.433 233.656 155.656 233.948 156.139 233.948C156.623 233.948 156.846 233.656 156.846 233.153C156.846 231.912 154.831 231.792 154.831 230.219C154.831 229.361 155.259 228.829 156.164 228.829C157.069 228.829 157.51 229.372 157.51 230.196Z" fill="white"/>
<path d="M158.979 234.434V229.423H157.863V228.851H160.759V229.423H159.643V234.434H158.979Z" fill="white"/>
<path d="M161.887 228.857V234.434H161.211V228.857H161.887Z" fill="white"/>
<path d="M165.247 230.207V230.71H164.627V230.173C164.627 229.675 164.41 229.372 163.92 229.372C163.431 229.372 163.214 229.675 163.214 230.173V233.124C163.214 233.622 163.437 233.925 163.92 233.925C164.404 233.925 164.627 233.622 164.627 233.124V232.398H165.247V233.09C165.247 233.937 164.813 234.491 163.883 234.491C162.953 234.491 162.525 233.919 162.525 233.09V230.23C162.525 229.383 162.959 228.829 163.883 228.829C164.807 228.829 165.247 229.372 165.247 230.207Z" fill="white"/>
<path d="M68.8044 260.397C68.5906 260.398 68.3787 260.36 68.1809 260.285C67.9831 260.21 67.8033 260.1 67.6518 259.96C67.5003 259.821 67.3801 259.656 67.2981 259.473C67.216 259.291 67.1738 259.096 67.1738 258.899V253.093C67.1738 252.694 67.3456 252.311 67.6514 252.029C67.9572 251.747 68.372 251.589 68.8044 251.589C69.0183 251.588 69.23 251.627 69.4275 251.703C69.625 251.779 69.8043 251.89 69.9552 252.029C70.1062 252.169 70.2257 252.335 70.307 252.518C70.3882 252.7 70.4296 252.896 70.4288 253.093V258.899C70.4288 259.296 70.2577 259.677 69.9531 259.958C69.6484 260.239 69.2352 260.397 68.8044 260.397Z" fill="#263238" stroke="#263238" stroke-miterlimit="10"/>
<path d="M108.38 260.397C107.949 260.397 107.536 260.239 107.232 259.958C106.927 259.677 106.756 259.296 106.756 258.899V253.093C106.755 252.896 106.796 252.7 106.878 252.518C106.959 252.335 107.079 252.169 107.229 252.029C107.38 251.89 107.56 251.779 107.757 251.703C107.955 251.627 108.166 251.588 108.38 251.589C108.813 251.589 109.227 251.747 109.533 252.029C109.839 252.311 110.011 252.694 110.011 253.093V258.899C110.011 259.096 109.969 259.291 109.887 259.473C109.805 259.656 109.684 259.821 109.533 259.96C109.381 260.1 109.202 260.21 109.004 260.285C108.806 260.36 108.594 260.398 108.38 260.397Z" fill="#263238" stroke="#263238" stroke-miterlimit="10"/>
<path d="M70.8625 254.094V257.326C70.8625 258.104 71.1976 258.85 71.794 259.401C72.3905 259.951 73.1995 260.26 74.0431 260.26H103.474C103.892 260.261 104.306 260.185 104.693 260.038C105.079 259.891 105.43 259.675 105.725 259.402C106.021 259.13 106.255 258.806 106.415 258.449C106.574 258.093 106.656 257.711 106.655 257.326V254.094C106.655 253.487 106.916 252.905 107.381 252.476C107.847 252.047 108.477 251.806 109.135 251.806H109.991C110.498 251.806 110.987 251.629 111.359 251.311C111.732 250.993 111.96 250.557 111.999 250.09L117.679 185.328H60.6387L66.3303 250.09C66.3664 250.557 66.5932 250.993 66.9649 251.312C67.3367 251.631 67.8256 251.807 68.3329 251.806C68.6627 251.8 68.9905 251.854 69.2972 251.967C69.6038 252.079 69.8831 252.247 70.1186 252.46C70.3542 252.673 70.5413 252.927 70.6691 253.208C70.7968 253.488 70.8625 253.789 70.8625 254.094Z" fill="#263238" stroke="#263238" stroke-miterlimit="10"/>
<path d="M116.42 183.143H63.0566V185.345H116.42V183.143Z" fill="#263238" stroke="#263238" stroke-miterlimit="10"/>
<path d="M119.546 184.842H59.0273V190.087H119.546V184.842Z" fill="#263238" stroke="#263238" stroke-miterlimit="10"/>
<path d="M94.2436 197.872C94.8057 198.001 95.3263 198.252 95.7626 198.604C96.0886 198.91 96.3699 199.255 96.5996 199.628C97.108 200.423 97.5668 201.252 98.0628 202.093L100.084 201.132L100.115 201.161L99.154 202.637C98.3542 203.855 97.5544 205.062 96.7608 206.28C96.7279 206.348 96.6734 206.404 96.6047 206.442C96.5359 206.48 96.4562 206.497 96.3764 206.492C94.318 206.463 92.2534 206.452 90.1764 206.429H89.9718L91.7884 205.342L90.908 203.849C90.288 202.768 89.668 201.681 88.9736 200.618C88.2893 199.412 87.1616 198.471 85.793 197.963H87.2128C87.4298 197.963 87.6468 197.935 87.8328 197.918L94.2436 197.872Z" fill="white"/>
<path d="M74.7129 211.92L76.7899 208.099L74.8989 206.721H75.1903L81.4895 206.681C81.574 206.672 81.6593 206.689 81.7323 206.729C81.8052 206.769 81.8615 206.831 81.8925 206.904C82.9217 208.683 83.9695 210.456 84.9925 212.229C85.0325 212.302 85.0677 212.376 85.0979 212.452L83.1697 211.491L82.0909 213.116L80.7269 215.175C80.6958 215.244 80.6403 215.302 80.5694 215.338C80.4985 215.374 80.4163 215.387 80.3363 215.375C79.4481 215.344 78.5624 215.269 77.6827 215.152C76.9965 215.04 76.3583 214.752 75.8409 214.321C75.3235 213.89 74.9477 213.334 74.7563 212.715C74.7467 212.69 74.7319 212.667 74.7129 212.647V211.92Z" fill="white"/>
<path d="M103.773 212.727C103.233 214.34 101.789 214.837 100.22 215.118C99.4755 215.225 98.7232 215.28 97.9696 215.284C97.9018 215.282 97.8352 215.267 97.7749 215.238C97.7147 215.209 97.6625 215.168 97.6224 215.118C96.6552 213.493 95.7066 211.857 94.7518 210.221C94.7259 210.175 94.7031 210.127 94.6836 210.078L100.884 206.572L101.386 207.487C102.068 208.723 102.75 209.953 103.426 211.188C103.55 211.411 103.643 211.64 103.748 211.869L103.773 212.727Z" fill="white"/>
<path d="M93.2824 213.808C93.2824 214.38 93.3506 214.906 93.3692 215.461C93.3692 215.678 93.425 215.77 93.6916 215.77C95.347 215.77 97.0024 215.77 98.6516 215.77C99.6899 215.803 100.723 215.623 101.677 215.244C102.186 215.015 102.651 214.706 103.116 214.443C102.992 214.66 102.849 214.923 102.7 215.181C101.609 217.068 100.512 218.962 99.4142 220.844C99.1353 221.353 98.7049 221.778 98.1735 222.07C97.6421 222.362 97.0315 222.508 96.4134 222.491C95.4028 222.491 94.3984 222.491 93.3134 222.491V224.596H93.208L92.4454 223.315C91.6642 221.993 90.8768 220.672 90.1018 219.345C90.0759 219.289 90.0625 219.228 90.0625 219.168C90.0625 219.107 90.0759 219.046 90.1018 218.99C91.1124 217.274 92.1416 215.587 93.1646 213.882C93.1872 213.847 93.2121 213.812 93.239 213.779L93.2824 213.808Z" fill="white"/>
<path d="M75.2461 214.34C75.7985 214.813 76.4493 215.178 77.159 215.413C77.8687 215.648 78.6226 215.748 79.3753 215.707C82.0413 215.707 84.7011 215.707 87.3671 215.741C87.5082 215.745 87.649 215.757 87.7887 215.776V222.508H87.6151C85.8605 222.508 84.1121 222.508 82.3575 222.508C81.339 222.541 80.3452 222.214 79.5799 221.593C79.4464 221.476 79.3334 221.341 79.2451 221.192C77.9369 218.979 76.6349 216.754 75.3267 214.534C75.2957 214.449 75.2709 214.391 75.2461 214.34Z" fill="white"/>
<path d="M85.9362 206.995L79.668 203.563L80.2384 202.745C81.1188 201.493 81.993 200.24 82.8796 198.993C83.1575 198.645 83.5441 198.385 83.9874 198.245C84.4307 198.106 84.9095 198.096 85.3596 198.215C86.0198 198.4 86.6217 198.73 87.1142 199.176C87.9747 199.928 88.6768 200.82 89.185 201.807C89.2065 201.852 89.2176 201.901 89.2176 201.95C89.2176 202 89.2065 202.048 89.185 202.093C88.1351 203.683 87.079 205.274 86.0168 206.864L85.9362 206.995Z" fill="white"/>
<path d="M82.8786 228.857C83.8272 228.857 84.2364 229.378 84.2364 230.224V230.893C84.2364 231.774 83.7838 232.238 82.829 232.238H82.209V234.434H81.5332V228.857H82.8786ZM82.829 231.683C83.3312 231.683 83.573 231.466 83.573 230.934V230.19C83.573 229.681 83.3746 229.423 82.8786 229.423H82.2586V231.711L82.829 231.683Z" fill="white"/>
<path d="M85.3341 233.313L85.0985 234.457H84.4785L85.6379 228.88H86.6113L87.7707 234.457H87.0949L86.8593 233.313H85.3341ZM85.4395 232.804H86.7849L86.1029 229.584L85.4395 232.804Z" fill="white"/>
<path d="M89.6185 228.857C90.5671 228.857 90.9763 229.378 90.9763 230.224V230.893C90.9763 231.774 90.5237 232.238 89.5689 232.238H88.9489V234.434H88.2793V228.857H89.6185ZM89.5689 231.683C90.0649 231.683 90.3067 231.466 90.3067 230.934V230.19C90.3067 229.681 90.1083 229.423 89.6185 229.423H88.9675V231.711L89.5689 231.683Z" fill="white"/>
<path d="M93.6488 231.328V231.9H92.1732V233.885H93.9898V234.457H91.5098V228.857H93.9898V229.429H92.1732V231.334L93.6488 231.328Z" fill="white"/>
<path d="M95.9802 228.857C96.935 228.857 97.3318 229.303 97.3318 230.133V230.59C97.3318 231.202 97.0962 231.586 96.5816 231.734C97.1334 231.889 97.338 232.306 97.338 232.878V233.742C97.3187 233.971 97.3613 234.201 97.462 234.411H96.78C96.6835 234.198 96.6452 233.966 96.6684 233.736V232.861C96.6684 232.232 96.346 232.032 95.7818 232.032H95.3106V234.411H94.6348V228.857H95.9802ZM95.8128 231.488C96.346 231.488 96.6684 231.328 96.6684 230.722V230.19C96.6684 229.687 96.4638 229.423 95.9678 229.423H95.3106V231.488H95.8128Z" fill="white"/>
<path d="M286.939 260.397H301.819" stroke="#263238" stroke-linecap="round" stroke-linejoin="round"/>
<path d="M17.2402 260.397H282.6" stroke="#263238" stroke-linecap="round" stroke-linejoin="round"/>
</svg>
