<svg width="393" height="401" viewBox="0 0 393 401" fill="none" xmlns="http://www.w3.org/2000/svg">
<path fill-rule="evenodd" clip-rule="evenodd" d="M173.042 242.314C219.398 240.623 267.399 245.581 301.77 261.723C337.553 278.528 358.116 303.218 355.827 328.159C353.626 352.143 327.163 374.055 290.127 388.586C257.269 401.478 214.024 402.403 173.042 399.875C137.49 397.681 108.855 387.268 80.96 375.683C47.9239 361.962 4.43377 349.943 0.364207 328.159C-3.86838 305.503 29.5457 286.285 61.3091 270.494C92.3457 255.064 130.055 243.882 173.042 242.314Z" fill="url(#paint0_linear_306_22)"/>
<g filter="url(#filter0_d_306_22)">
<path d="M207.5 337.772C286.955 337.772 351.367 333.769 351.367 328.83C351.367 323.891 286.955 319.887 207.5 319.887C128.045 319.887 63.6338 323.891 63.6338 328.83C63.6338 333.769 128.045 337.772 207.5 337.772Z" fill="#F5F5F5"/>
<path d="M261.637 330.339H219.9L219.313 322.573H262.223L261.637 330.339Z" fill="#2FB2B5"/>
<path opacity="0.2" d="M261.637 330.339H219.9L219.313 322.573H262.223L261.637 330.339Z" fill="black"/>
<path opacity="0.2" d="M257.92 330.339H219.9L219.313 322.573H258.402L257.92 330.339Z" fill="black"/>
<path d="M245.617 325.125H243.569C242.574 325.125 241.766 326.452 241.766 328.095C241.766 329.738 242.574 331.065 243.569 331.065H245.617C246.611 331.065 247.42 329.738 247.42 328.095C247.42 326.452 246.611 325.125 245.617 325.125Z" fill="#263238"/>
<path opacity="0.2" d="M247.42 328.095C247.42 329.738 246.611 331.065 245.617 331.065C244.622 331.065 243.813 329.738 243.813 328.095C243.813 326.452 244.622 325.125 245.617 325.125C246.611 325.125 247.42 326.452 247.42 328.095Z" fill="white"/>
<path d="M212.695 325.125H210.647C209.653 325.125 208.844 326.452 208.844 328.095C208.844 329.738 209.653 331.065 210.647 331.065H212.695C213.689 331.065 214.49 329.738 214.49 328.095C214.49 326.452 213.652 325.125 212.695 325.125Z" fill="#263238"/>
<path opacity="0.2" d="M214.453 328.095C214.453 329.738 213.652 331.065 212.658 331.065C211.663 331.065 210.854 329.738 210.854 328.095C210.854 326.452 211.663 325.125 212.658 325.125C213.652 325.125 214.453 326.452 214.453 328.095Z" fill="white"/>
<path d="M265.272 211.049H232.728C232.299 211.078 231.869 210.999 231.473 210.819C231.077 210.638 230.727 210.361 230.451 210.009C230.175 209.657 229.98 209.241 229.883 208.795C229.787 208.348 229.79 207.883 229.894 207.438L237.314 168.942C237.547 167.929 238.087 167.027 238.85 166.374C239.613 165.722 240.557 165.355 241.536 165.331H274.08C279.497 165.331 283.021 169.818 281.953 175.356L276.996 201.023C275.95 206.561 270.689 211.049 265.272 211.049Z" fill="#2FB2B5"/>
<path opacity="0.2" d="M265.272 211.049H232.728C232.299 211.078 231.869 210.999 231.473 210.819C231.077 210.638 230.727 210.361 230.451 210.009C230.175 209.657 229.98 209.241 229.883 208.795C229.787 208.348 229.79 207.883 229.894 207.438L237.314 168.942C237.547 167.929 238.087 167.027 238.85 166.374C239.613 165.722 240.557 165.355 241.536 165.331H274.08C279.497 165.331 283.021 169.818 281.953 175.356L276.996 201.023C275.95 206.561 270.689 211.049 265.272 211.049Z" fill="white"/>
<path d="M267.662 212.415H226.414C225.985 212.446 225.555 212.369 225.159 212.189C224.763 212.009 224.413 211.733 224.136 211.382C223.86 211.03 223.666 210.615 223.569 210.168C223.472 209.722 223.476 209.257 223.58 208.813L231.556 167.567C231.791 166.556 232.331 165.656 233.094 165.005C233.857 164.353 234.801 163.988 235.778 163.965H277.026C277.455 163.934 277.885 164.011 278.281 164.191C278.677 164.37 279.028 164.647 279.304 164.998C279.58 165.349 279.775 165.765 279.871 166.211C279.968 166.658 279.964 167.122 279.86 167.567L271.891 208.813C271.657 209.825 271.115 210.726 270.35 211.378C269.586 212.029 268.641 212.394 267.662 212.415Z" fill="#2FB2B5"/>
<path opacity="0.2" d="M278.488 167.567L277.746 171.398L270.511 208.813C270.368 209.432 270.038 209.984 269.571 210.384C269.105 210.783 268.528 211.009 267.929 211.025H226.689C226.425 211.043 226.161 210.994 225.919 210.884C225.676 210.773 225.461 210.603 225.292 210.388C225.122 210.173 225.002 209.918 224.942 209.644C224.882 209.371 224.883 209.086 224.945 208.813L232.921 167.567C233.066 166.948 233.398 166.397 233.866 165.999C234.334 165.6 234.912 165.377 235.511 165.363H276.759C277.021 165.343 277.285 165.39 277.527 165.499C277.77 165.609 277.984 165.778 278.153 165.994C278.322 166.209 278.44 166.464 278.499 166.737C278.557 167.011 278.553 167.295 278.488 167.567Z" fill="black"/>
<path opacity="0.2" d="M278.487 167.567L277.745 171.398C264.389 171.122 239.161 170.727 238.538 171.572C237.729 172.718 226.666 211.025 226.666 211.025C226.403 211.043 226.139 210.994 225.896 210.884C225.654 210.773 225.439 210.603 225.269 210.388C225.099 210.173 224.98 209.918 224.919 209.644C224.859 209.371 224.86 209.086 224.922 208.813L232.899 167.567C233.044 166.948 233.376 166.397 233.844 165.999C234.311 165.6 234.889 165.377 235.488 165.363H276.736C277.001 165.339 277.267 165.383 277.512 165.49C277.758 165.598 277.975 165.767 278.147 165.983C278.318 166.199 278.439 166.455 278.498 166.731C278.557 167.006 278.554 167.293 278.487 167.567Z" fill="black"/>
<path d="M269.034 214.88L265.547 322.628C265.516 323.624 265.122 324.567 264.449 325.259C263.776 325.95 262.876 326.336 261.941 326.333H208.71C207.775 326.336 206.876 325.95 206.204 325.258C205.532 324.566 205.14 323.623 205.111 322.628L201.631 214.88H269.034Z" fill="#2FB2B5"/>
<path opacity="0.2" d="M269.035 214.88L265.547 322.628C265.516 323.624 265.123 324.567 264.449 325.259C263.776 325.95 262.877 326.336 261.941 326.333H249.683C248.749 326.334 247.851 325.947 247.18 325.256C246.508 324.565 246.115 323.622 246.084 322.628L242.604 214.88H269.035Z" fill="black"/>
<path d="M216.049 263.07L218.749 258.093L219.454 258.543L218.534 254.712L214.921 255.691L215.722 256.197L212.999 261.213C212.597 261.957 212.385 262.8 212.386 263.657C212.386 264.515 212.599 265.358 213.001 266.1C213.404 266.843 213.984 267.46 214.681 267.889C215.379 268.318 216.17 268.544 216.976 268.545H220.478V264.816H216.946C216.757 264.81 216.573 264.752 216.412 264.647C216.251 264.542 216.118 264.393 216.028 264.217C215.937 264.04 215.891 263.842 215.895 263.64C215.898 263.439 215.951 263.243 216.049 263.07Z" fill="white"/>
<path d="M223.528 250.43C223.72 250.43 223.908 250.484 224.073 250.587C224.239 250.69 224.376 250.837 224.47 251.015L227.401 256.41L226.659 256.853L230.251 257.88L231.215 254.056L230.406 254.554L227.535 249.166C227.133 248.423 226.554 247.805 225.856 247.376C225.159 246.947 224.367 246.721 223.561 246.721C222.756 246.721 221.964 246.947 221.267 247.376C220.569 247.805 219.99 248.423 219.588 249.166L217.577 252.871L220.59 254.767L222.623 251.03C222.712 250.855 222.842 250.708 223.001 250.602C223.159 250.497 223.341 250.438 223.528 250.43Z" fill="white"/>
<path d="M234.035 261.214L232.298 258.006L229.249 259.839L231.007 263.078C231.102 263.255 231.152 263.455 231.151 263.659C231.151 263.863 231.1 264.063 231.003 264.239C230.907 264.415 230.769 264.561 230.603 264.662C230.437 264.763 230.249 264.816 230.058 264.816H224.671V263.931L222.044 266.728L224.671 269.524V268.545H230.058C230.863 268.544 231.655 268.318 232.352 267.889C233.05 267.46 233.629 266.843 234.032 266.1C234.435 265.358 234.647 264.515 234.648 263.657C234.648 262.8 234.437 261.957 234.035 261.214Z" fill="white"/>
<path d="M269.316 211.981H201.78C201.14 211.981 200.622 212.532 200.622 213.213V219.778C200.622 220.459 201.14 221.01 201.78 221.01H269.316C269.956 221.01 270.474 220.459 270.474 219.778V213.213C270.474 212.532 269.956 211.981 269.316 211.981Z" fill="#2FB2B5"/>
<path opacity="0.2" d="M243.361 211.981H201.78C201.14 211.981 200.622 212.532 200.622 213.213V219.778C200.622 220.459 201.14 221.01 201.78 221.01H243.361C244.001 221.01 244.519 220.459 244.519 219.778V213.213C244.519 212.532 244.001 211.981 243.361 211.981Z" fill="white"/>
<path d="M305.31 205.4H276.038L277.485 203.354C278.467 201.974 279.736 200.853 281.191 200.081C282.647 199.308 284.25 198.903 285.877 198.898H295.471C297.097 198.903 298.699 199.308 300.153 200.081C301.608 200.854 302.875 201.974 303.856 203.354L305.31 205.4ZM280.416 203.22H300.932C299.404 201.848 297.47 201.093 295.471 201.087H285.877C283.881 201.082 281.948 201.826 280.416 203.188V203.22Z" fill="#263238"/>
<path d="M323.667 213.592V216.31H257.317V213.592C257.318 212.067 257.601 210.557 258.15 209.149C258.7 207.74 259.504 206.461 260.517 205.383C261.531 204.305 262.734 203.451 264.058 202.868C265.381 202.286 266.8 201.986 268.232 201.987H312.752C314.185 201.986 315.603 202.286 316.927 202.868C318.251 203.451 319.454 204.305 320.467 205.383C321.481 206.461 322.285 207.74 322.834 209.149C323.383 210.557 323.666 212.067 323.667 213.592Z" fill="#263238"/>
<path opacity="0.2" d="M323.667 213.592V216.31H298.298V213.592C298.3 210.514 299.45 207.562 301.495 205.386C303.541 203.21 306.314 201.987 309.205 201.987H312.759C315.651 201.987 318.424 203.21 320.47 205.386C322.515 207.562 323.665 210.514 323.667 213.592Z" fill="black"/>
<path d="M316.27 330.339H274.532L273.946 322.573H316.856L316.27 330.339Z" fill="#263238"/>
<path opacity="0.2" d="M316.27 330.339H274.532L273.946 322.573H316.856L316.27 330.339Z" fill="black"/>
<path opacity="0.2" d="M312.553 330.339H274.532L273.946 322.573H313.035L312.553 330.339Z" fill="black"/>
<path d="M300.249 325.125H298.201C297.207 325.125 296.398 326.452 296.398 328.095C296.398 329.738 297.207 331.065 298.201 331.065H300.249C301.244 331.065 302.045 329.738 302.045 328.095C302.045 326.452 301.244 325.125 300.249 325.125Z" fill="#263238"/>
<path opacity="0.2" d="M302.045 328.095C302.045 329.738 301.244 331.065 300.249 331.065C299.255 331.065 298.446 329.738 298.446 328.095C298.446 326.452 299.255 325.125 300.249 325.125C301.244 325.125 302.045 326.452 302.045 328.095Z" fill="white"/>
<path d="M267.29 325.125H265.243C264.248 325.125 263.439 326.452 263.439 328.095C263.439 329.738 264.248 331.065 265.243 331.065H267.29C268.285 331.065 269.086 329.738 269.086 328.095C269.086 326.452 268.285 325.125 267.29 325.125Z" fill="#263238"/>
<path opacity="0.2" d="M269.086 328.095C269.086 329.738 268.285 331.065 267.29 331.065C266.296 331.065 265.487 329.738 265.487 328.095C265.487 326.452 266.296 325.125 267.29 325.125C268.285 325.125 269.086 326.452 269.086 328.095Z" fill="white"/>
<path d="M323.667 214.88L320.18 322.628C320.149 323.624 319.755 324.567 319.082 325.259C318.409 325.95 317.509 326.336 316.573 326.333H263.342C262.408 326.336 261.509 325.95 260.837 325.258C260.165 324.566 259.773 323.623 259.744 322.628L256.264 214.88H323.667Z" fill="#263238"/>
<path opacity="0.2" d="M323.667 214.88L320.18 322.628C320.149 323.624 319.755 324.567 319.082 325.259C318.409 325.95 317.509 326.336 316.574 326.333H304.316C303.382 326.334 302.484 325.947 301.812 325.256C301.141 324.565 300.748 323.622 300.717 322.628L297.237 214.88H323.667Z" fill="black"/>
<path d="M270.681 263.07L273.382 258.093L274.087 258.543L273.167 254.712L269.568 255.684L270.37 256.189L267.646 261.206C267.244 261.949 267.033 262.792 267.033 263.649C267.034 264.507 267.246 265.35 267.649 266.093C268.052 266.835 268.631 267.452 269.329 267.881C270.027 268.31 270.818 268.536 271.624 268.537H275.126V264.808H271.594C271.405 264.804 271.22 264.748 271.058 264.644C270.896 264.54 270.762 264.393 270.669 264.218C270.577 264.042 270.53 263.844 270.532 263.642C270.534 263.441 270.585 263.244 270.681 263.07Z" fill="white"/>
<path d="M278.16 250.43C278.352 250.43 278.54 250.484 278.706 250.587C278.871 250.69 279.008 250.837 279.103 251.015L282.026 256.41L281.284 256.853L284.875 257.88L285.84 254.056L285.031 254.554L282.1 249.15C281.698 248.407 281.119 247.79 280.421 247.36C279.724 246.931 278.932 246.705 278.127 246.705C277.321 246.705 276.53 246.931 275.832 247.36C275.135 247.79 274.556 248.407 274.153 249.15L272.143 252.855L275.155 254.751L277.188 251.015C277.284 250.832 277.426 250.681 277.597 250.578C277.769 250.475 277.963 250.423 278.16 250.43Z" fill="white"/>
<path d="M288.667 261.214L286.931 258.006L283.882 259.839L285.64 263.078C285.735 263.255 285.785 263.455 285.784 263.659C285.783 263.863 285.732 264.063 285.636 264.239C285.54 264.415 285.402 264.561 285.236 264.662C285.07 264.763 284.882 264.816 284.69 264.816H279.303V263.931L276.677 266.728L279.303 269.524V268.545H284.668C285.474 268.544 286.265 268.318 286.963 267.889C287.66 267.46 288.24 266.843 288.643 266.1C289.046 265.358 289.258 264.515 289.258 263.657C289.259 262.8 289.047 261.957 288.645 261.214H288.667Z" fill="white"/>
<path d="M323.949 211.981H256.412C255.773 211.981 255.255 212.532 255.255 213.213V219.778C255.255 220.459 255.773 221.01 256.412 221.01H323.949C324.589 221.01 325.107 220.459 325.107 219.778V213.213C325.107 212.532 324.589 211.981 323.949 211.981Z" fill="#263238"/>
<path opacity="0.2" d="M297.994 211.981H256.412C255.773 211.981 255.255 212.532 255.255 213.213V219.778C255.255 220.459 255.773 221.01 256.412 221.01H297.994C298.633 221.01 299.152 220.459 299.152 219.778V213.213C299.152 212.532 298.633 211.981 297.994 211.981Z" fill="white"/>
<path d="M133.53 240.081L134.272 237.64L130.266 236.273L129.524 238.706C129.427 239.032 129.268 239.332 129.056 239.588C128.843 239.844 128.583 240.05 128.292 240.192C128 240.332 127.739 240.536 127.525 240.79C127.312 241.045 127.151 241.344 127.053 241.669L122.831 255.676C122.783 255.84 122.766 256.013 122.782 256.184C122.798 256.356 122.845 256.522 122.922 256.673C122.999 256.825 123.103 256.958 123.229 257.067C123.354 257.175 123.499 257.255 123.654 257.303L128.21 258.883C128.363 258.936 128.524 258.956 128.683 258.943C128.843 258.929 128.999 258.882 129.142 258.804C129.284 258.727 129.411 258.619 129.515 258.489C129.619 258.359 129.697 258.208 129.746 258.046L133.968 244.039C134.063 243.714 134.095 243.372 134.06 243.033C134.026 242.695 133.926 242.368 133.768 242.072C133.598 241.777 133.49 241.447 133.449 241.104C133.408 240.76 133.436 240.412 133.53 240.081Z" fill="#2FB2B5"/>
<path opacity="0.2" d="M133.53 240.081L134.272 237.64L130.266 236.273L129.524 238.706C129.427 239.032 129.268 239.332 129.056 239.588C128.843 239.844 128.583 240.05 128.292 240.192C128 240.332 127.739 240.536 127.525 240.79C127.312 241.045 127.151 241.344 127.053 241.669L122.831 255.676C122.783 255.84 122.766 256.013 122.782 256.184C122.798 256.356 122.845 256.522 122.922 256.673C122.999 256.825 123.103 256.958 123.229 257.067C123.354 257.175 123.499 257.255 123.654 257.303L128.21 258.883C128.363 258.936 128.524 258.956 128.683 258.943C128.843 258.929 128.999 258.882 129.142 258.804C129.284 258.727 129.411 258.619 129.515 258.489C129.619 258.359 129.697 258.208 129.746 258.046L133.968 244.039C134.063 243.714 134.095 243.372 134.06 243.033C134.026 242.695 133.926 242.368 133.768 242.072C133.598 241.777 133.49 241.447 133.449 241.104C133.408 240.76 133.436 240.412 133.53 240.081Z" fill="black"/>
<path opacity="0.5" d="M132.914 247.381L133.931 244.015C134.026 243.69 134.057 243.348 134.023 243.009C133.989 242.671 133.889 242.344 133.731 242.048C133.571 241.753 133.47 241.426 133.436 241.087C133.401 240.748 133.433 240.406 133.53 240.081L134.272 237.64L130.266 236.273L129.524 238.706C129.427 239.032 129.268 239.332 129.056 239.588C128.843 239.844 128.583 240.05 128.292 240.192C128 240.332 127.739 240.536 127.525 240.79C127.312 241.045 127.151 241.344 127.053 241.669L126.036 245.034L132.914 247.381Z" fill="white"/>
<path opacity="0.6" d="M124.56 249.932L122.831 255.676C122.783 255.84 122.766 256.013 122.782 256.184C122.798 256.355 122.845 256.522 122.922 256.673C122.999 256.825 123.103 256.958 123.229 257.067C123.354 257.175 123.499 257.255 123.654 257.303L128.21 258.883C128.363 258.936 128.524 258.956 128.683 258.943C128.843 258.929 128.999 258.882 129.142 258.804C129.284 258.726 129.411 258.619 129.515 258.489C129.619 258.359 129.697 258.208 129.746 258.046L131.475 252.302L124.56 249.932Z" fill="white"/>
<path d="M134.471 236.967L130.493 235.609C130.286 235.538 130.064 235.659 129.998 235.88L129.66 237C129.594 237.221 129.708 237.456 129.915 237.527L133.893 238.885C134.1 238.956 134.321 238.835 134.387 238.614L134.725 237.493C134.791 237.273 134.677 237.038 134.471 236.967Z" fill="#2FB2B5"/>
<path d="M120.041 244.11L120.783 241.669L116.776 240.302L116.034 242.735C115.937 243.06 115.778 243.359 115.566 243.614C115.353 243.868 115.093 244.072 114.802 244.213C114.51 244.353 114.248 244.557 114.035 244.811C113.821 245.066 113.661 245.365 113.563 245.69L109.341 259.697C109.243 260.024 109.271 260.378 109.418 260.684C109.566 260.989 109.821 261.219 110.127 261.324L114.683 262.904C114.836 262.957 114.997 262.977 115.156 262.964C115.316 262.95 115.472 262.903 115.615 262.825C115.757 262.748 115.884 262.641 115.988 262.51C116.092 262.38 116.17 262.229 116.219 262.067L120.441 248.06C120.536 247.735 120.568 247.393 120.533 247.054C120.499 246.716 120.399 246.389 120.241 246.093C120.079 245.796 119.977 245.466 119.942 245.124C119.908 244.783 119.941 244.437 120.041 244.11Z" fill="#2FB2B5"/>
<path opacity="0.2" d="M120.041 244.11L120.783 241.669L116.776 240.302L116.034 242.735C115.937 243.06 115.778 243.359 115.566 243.614C115.353 243.868 115.093 244.072 114.802 244.213C114.51 244.353 114.248 244.557 114.035 244.811C113.821 245.066 113.661 245.365 113.563 245.69L109.341 259.697C109.243 260.024 109.271 260.378 109.418 260.684C109.566 260.989 109.821 261.219 110.127 261.324L114.683 262.904C114.836 262.957 114.997 262.977 115.156 262.964C115.316 262.95 115.472 262.903 115.615 262.825C115.757 262.748 115.884 262.641 115.988 262.51C116.092 262.38 116.17 262.229 116.219 262.067L120.441 248.06C120.536 247.735 120.568 247.393 120.533 247.054C120.499 246.716 120.399 246.389 120.241 246.093C120.079 245.796 119.977 245.466 119.942 245.124C119.908 244.783 119.941 244.437 120.041 244.11Z" fill="black"/>
<path opacity="0.5" d="M119.425 251.386L120.434 248.021C120.532 247.696 120.566 247.354 120.532 247.015C120.499 246.677 120.4 246.349 120.241 246.053C120.081 245.758 119.981 245.431 119.946 245.092C119.912 244.754 119.944 244.411 120.041 244.086L120.783 241.645L116.776 240.279L116.034 242.712C115.938 243.036 115.778 243.335 115.566 243.59C115.354 243.844 115.094 244.049 114.802 244.189C114.508 244.332 114.245 244.54 114.032 244.798C113.818 245.057 113.659 245.361 113.563 245.69L112.524 249.04L119.425 251.386Z" fill="white"/>
<path opacity="0.6" d="M111.04 253.938L109.312 259.681C109.262 259.843 109.243 260.013 109.256 260.183C109.269 260.353 109.313 260.518 109.386 260.669C109.459 260.821 109.56 260.955 109.682 261.065C109.804 261.174 109.946 261.257 110.098 261.308L114.654 262.888C114.806 262.941 114.967 262.961 115.127 262.948C115.287 262.934 115.443 262.887 115.585 262.81C115.728 262.732 115.855 262.625 115.959 262.494C116.063 262.364 116.141 262.214 116.19 262.051L117.919 256.308L111.04 253.938Z" fill="white"/>
<path d="M120.983 240.962L117.005 239.604C116.799 239.533 116.577 239.654 116.511 239.874L116.173 240.995C116.107 241.216 116.221 241.451 116.428 241.522L120.405 242.88C120.612 242.951 120.834 242.829 120.9 242.609L121.238 241.488C121.304 241.268 121.19 241.032 120.983 240.962Z" fill="#2FB2B5"/>
<path d="M124.062 237.047L123.906 234.496L119.707 234.772L119.862 237.332C119.882 237.671 119.835 238.011 119.723 238.329C119.612 238.647 119.44 238.937 119.217 239.18C118.993 239.424 118.819 239.715 118.708 240.035C118.597 240.355 118.55 240.697 118.571 241.037L119.773 261.53C119.794 261.873 119.942 262.193 120.184 262.421C120.425 262.649 120.742 262.766 121.064 262.746L125.843 262.422C126.003 262.412 126.159 262.369 126.302 262.294C126.446 262.219 126.574 262.115 126.68 261.987C126.785 261.859 126.866 261.71 126.917 261.549C126.969 261.388 126.989 261.217 126.978 261.048L125.776 240.563C125.754 240.222 125.666 239.89 125.518 239.587C125.37 239.284 125.165 239.016 124.915 238.801C124.665 238.589 124.46 238.324 124.313 238.021C124.166 237.719 124.08 237.387 124.062 237.047Z" fill="#2FB2B5"/>
<path opacity="0.6" d="M126.155 246.994L125.776 240.563C125.754 240.222 125.666 239.89 125.518 239.587C125.37 239.284 125.165 239.016 124.915 238.801C124.665 238.589 124.46 238.324 124.313 238.021C124.166 237.719 124.08 237.387 124.062 237.047L123.906 234.496L119.707 234.772L119.862 237.332C119.882 237.671 119.835 238.011 119.723 238.329C119.612 238.647 119.44 238.937 119.217 239.18C118.993 239.424 118.819 239.715 118.708 240.035C118.597 240.355 118.55 240.697 118.571 241.037L118.95 247.475L126.155 246.994Z" fill="white"/>
<path opacity="0.6" d="M119.417 255.51L119.773 261.53C119.794 261.873 119.942 262.193 120.183 262.421C120.425 262.649 120.742 262.766 121.064 262.746L125.843 262.422C126.002 262.412 126.158 262.369 126.302 262.294C126.446 262.219 126.574 262.115 126.68 261.987C126.785 261.859 126.866 261.71 126.917 261.549C126.968 261.388 126.989 261.217 126.978 261.048L126.622 255.028L119.417 255.51Z" fill="white"/>
<path d="M123.848 233.797L119.679 234.075C119.462 234.089 119.297 234.288 119.311 234.519L119.38 235.694C119.393 235.925 119.58 236.1 119.797 236.085L123.966 235.808C124.183 235.793 124.348 235.594 124.334 235.364L124.265 234.189C124.251 233.958 124.065 233.783 123.848 233.797Z" fill="#2FB2B5"/>
<path d="M109.638 244.9L108.079 242.949L104.874 245.848L106.432 247.799C106.638 248.06 106.791 248.363 106.881 248.689C106.972 249.015 106.998 249.358 106.959 249.695C106.915 250.034 106.94 250.379 107.03 250.708C107.121 251.036 107.276 251.34 107.486 251.599L119.944 267.273C120.153 267.535 120.451 267.697 120.772 267.725C121.093 267.754 121.412 267.645 121.658 267.423L125.301 264.121C125.424 264.011 125.525 263.877 125.598 263.726C125.672 263.575 125.716 263.409 125.73 263.24C125.743 263.07 125.724 262.899 125.675 262.737C125.625 262.575 125.546 262.425 125.442 262.296L112.962 246.646C112.756 246.385 112.501 246.174 112.213 246.026C111.926 245.877 111.612 245.795 111.292 245.785C110.974 245.769 110.662 245.682 110.377 245.53C110.092 245.377 109.84 245.163 109.638 244.9Z" fill="#2FB2B5"/>
<path opacity="0.6" d="M116.902 251.56L112.984 246.646C112.778 246.385 112.523 246.174 112.236 246.026C111.948 245.877 111.634 245.795 111.315 245.785C110.994 245.775 110.679 245.693 110.39 245.545C110.101 245.397 109.844 245.185 109.638 244.924L108.079 242.972L104.874 245.872L106.432 247.823C106.638 248.083 106.791 248.386 106.881 248.713C106.972 249.039 106.998 249.381 106.959 249.719C106.916 250.057 106.94 250.402 107.029 250.73C107.118 251.058 107.272 251.362 107.478 251.623L111.404 256.537L116.902 251.56Z" fill="white"/>
<path opacity="0.6" d="M116.293 262.675L120.003 267.273C120.212 267.535 120.509 267.697 120.831 267.725C121.152 267.754 121.471 267.645 121.717 267.423L125.36 264.121C125.483 264.011 125.584 263.877 125.657 263.726C125.731 263.575 125.775 263.409 125.788 263.24C125.802 263.07 125.783 262.899 125.734 262.737C125.684 262.575 125.605 262.425 125.501 262.296L121.836 257.698L116.293 262.675Z" fill="white"/>
<path d="M107.63 242.457L104.445 245.335C104.28 245.485 104.259 245.749 104.4 245.925L105.116 246.823C105.256 246.999 105.504 247.021 105.67 246.871L108.854 243.992C109.02 243.843 109.04 243.579 108.9 243.402L108.184 242.505C108.044 242.329 107.795 242.307 107.63 242.457Z" fill="#2FB2B5"/>
<path d="M124.663 331.065C124.663 331.065 161.259 329.612 165.295 329.612C169.332 329.612 166.2 326.096 166.2 326.096C166.2 326.096 166.861 314.072 166.2 309.506C165.54 304.94 154.113 272.479 146.322 264.816C138.531 257.153 138.613 254.269 138.613 254.269C138.613 254.269 139.845 254.554 139.845 252.097C139.845 249.893 131.504 246.322 125.487 245.84C121.45 245.524 112.049 249.174 107.456 249.482C102.863 249.79 90.9467 266.072 92.6904 269.098C93.2766 270.133 103.316 266.862 103.316 266.862C103.016 271.918 102.323 276.938 101.246 281.872C99.6207 288.492 95.5694 299.979 95.5694 306.457C95.5694 312.935 100.704 325.922 100.704 325.922C100.704 325.922 98.5374 327.502 98.5374 328.774C98.5374 330.046 105.297 329.501 105.297 329.501C105.297 329.501 118.178 331.065 124.663 331.065Z" fill="#263238"/>
<path opacity="0.5" d="M165.288 329.612C161.259 329.612 124.664 331.065 124.664 331.065C118.186 331.065 105.297 329.485 105.297 329.485C105.297 329.485 98.5452 330.062 98.5452 328.759C98.5452 327.455 100.704 325.907 100.704 325.907C100.704 325.907 98.9384 321.451 97.4841 316.427C96.4527 312.895 95.5698 309.088 95.5698 306.409C95.5698 299.931 99.6211 288.429 101.239 281.825C102.32 276.891 103.015 271.871 103.316 266.815C100.394 267.788 97.421 268.58 94.4122 269.185C93.4922 269.311 92.8318 269.303 92.6982 269.066C90.9545 266.009 102.871 249.759 107.464 249.45C112.057 249.142 121.458 245.5 125.502 245.816C131.505 246.283 139.845 249.853 139.845 252.065C139.845 254.522 138.621 254.238 138.621 254.238C138.621 254.238 138.539 257.121 146.33 264.784C154.121 272.447 165.548 304.869 166.208 309.475C166.356 310.714 166.443 311.962 166.468 313.211C166.616 318.623 166.208 326.096 166.208 326.096C166.208 326.096 169.325 329.612 165.288 329.612Z" fill="white"/>
<path opacity="0.2" d="M109.861 257.477C107.056 259.246 103.316 266.83 103.316 266.83C100.394 267.804 97.4209 268.595 94.4121 269.2C98.3076 262.73 107.056 258.654 109.861 257.477Z" fill="black"/>
<path opacity="0.2" d="M110.728 257.129C110.654 257.129 110.35 257.264 109.86 257.477C110.124 257.297 110.419 257.179 110.728 257.129Z" fill="black"/>
<path opacity="0.2" d="M138.613 254.238C138.613 254.238 130.251 250.027 126.956 249.45C123.662 248.874 111.597 253.29 111.597 253.29C111.597 253.29 122.868 246.385 126.956 247.341C131.044 248.297 137.441 251.425 138.613 254.238Z" fill="black"/>
<path opacity="0.2" d="M165.287 329.612C161.258 329.612 124.663 331.065 124.663 331.065C118.185 331.065 105.297 329.485 105.297 329.485C105.297 329.485 98.5445 330.062 98.5445 328.759C98.5445 327.455 100.704 325.907 100.704 325.907C100.704 325.907 98.9377 321.451 97.4834 316.427C104.703 320.938 114.995 325.986 125.108 326.167C125.108 326.167 111.507 319.934 108.584 312.959C108.584 312.959 128.128 324.019 133.07 324.295C138.011 324.572 158.038 326.626 159.841 323.687C160.969 321.846 164.174 316.735 166.43 313.172C166.578 318.583 166.17 326.057 166.17 326.057C166.17 326.057 169.324 329.612 165.287 329.612Z" fill="black"/>
<path d="M173.858 316.916L177.508 316.98C181.218 298.446 183.83 275.512 185.462 258.219C185.715 255.502 185.952 252.942 186.152 250.548C186.249 249.403 186.345 248.313 186.427 247.262C186.865 242.056 187.169 237.932 187.347 235.412C187.481 233.548 187.547 232.529 187.547 232.529H174.37L174.496 236.099L174.904 247.894L174.941 249.245L175.223 257.034L175.675 270.291C171.142 288.935 173.858 316.916 173.858 316.916Z" fill="#EBB376"/>
<path d="M144.304 315.921L147.895 316.64C155.078 297.522 161.83 273.04 166.215 255.936C166.89 253.29 167.521 250.809 168.077 248.558C168.077 248.447 168.129 248.336 168.159 248.226C169.265 243.762 170.118 240.207 170.652 237.956L171.283 235.222L158.298 232.852L157.556 238.667L156.473 247.207L156.302 248.85L155.56 254.664L153.586 270.275C146.122 287.86 144.304 315.921 144.304 315.921Z" fill="#EBB376"/>
<path opacity="0.2" d="M156.479 247.183L168.077 248.558C168.077 248.447 168.129 248.336 168.159 248.226C169.264 243.762 170.117 240.207 170.652 237.956L157.563 238.651L156.479 247.183Z" fill="black"/>
<path opacity="0.2" d="M174.496 236.076L174.904 247.87L174.941 249.221L186.153 250.548C186.249 249.403 186.346 248.313 186.427 247.262C186.865 242.056 187.169 237.932 187.348 235.412L174.496 236.076Z" fill="black"/>
<path d="M184.624 329.793C183.948 329.207 183.176 328.759 182.346 328.474C182.346 328.474 179.86 325.851 178.636 317.959L175.386 317.059C174.833 316.913 174.252 316.952 173.72 317.171C173.189 317.39 172.734 317.779 172.418 318.283C172.327 318.423 172.257 318.578 172.21 318.741C172.042 319.588 171.925 320.446 171.862 321.309C171.681 324.202 171.666 327.104 171.817 329.999H172.403L172.641 324.556C172.722 322.707 174.051 324.872 174.429 326.863C174.807 328.853 175.616 330.971 179.423 331.065C183.904 331.136 185.745 330.955 184.624 329.793Z" fill="#263238"/>
<path d="M172.351 318.37C172.136 316.529 172.069 313.314 172.069 313.314L179.289 314.167C179.289 314.167 178.413 317.817 179.133 320.558C175.497 319.523 172.351 318.37 172.351 318.37Z" fill="#263238"/>
<path d="M155.248 329.793C154.569 329.207 153.794 328.759 152.962 328.474C152.962 328.474 150.484 325.851 149.289 317.959L146.04 317.059C145.487 316.913 144.905 316.952 144.374 317.171C143.842 317.39 143.388 317.779 143.072 318.283C142.98 318.423 142.91 318.578 142.864 318.741C142.695 319.588 142.579 320.446 142.515 321.309C142.334 324.202 142.319 327.104 142.471 329.999H143.057L143.287 324.556C143.376 322.707 144.704 324.872 145.082 326.863C145.461 328.853 146.27 330.971 150.076 331.065C154.528 331.136 156.368 330.955 155.248 329.793Z" fill="#263238"/>
<path d="M142.945 318.37C142.738 316.529 142.671 313.314 142.671 313.314L149.891 314.167C149.891 314.167 149.015 317.817 149.735 320.558C146.121 319.523 142.945 318.37 142.945 318.37Z" fill="#263238"/>
<path d="M155.226 243.375L168.96 245.248L169.494 245.311L172.314 234.29L173.056 246.101L187.777 245.311C194.336 204.341 183.125 194.664 183.125 194.664L163.158 198.938C154.12 215.275 156.301 234.29 156.301 234.29L155.226 243.375Z" fill="#2FB2B5"/>
<path opacity="0.5" d="M155.226 243.375L168.96 245.248L169.494 245.311L172.314 234.29L173.056 246.101L187.777 245.311C194.336 204.341 183.125 194.664 183.125 194.664L163.158 198.938C154.12 215.275 156.301 234.29 156.301 234.29L155.226 243.375Z" fill="white"/>
<path opacity="0.2" d="M168.96 245.248L169.494 245.311L172.314 234.29C172.314 234.29 166.259 223.278 168.151 217.542C167.884 217.945 161.362 228.247 168.96 245.248Z" fill="black"/>
<path d="M136.268 169.06L137.01 166.619L133.003 165.252L132.261 167.685C132.165 168.01 132.005 168.309 131.793 168.564C131.581 168.818 131.321 169.022 131.03 169.163C130.738 169.306 130.477 169.512 130.264 169.767C130.051 170.023 129.89 170.323 129.79 170.648L125.568 184.655C125.47 184.981 125.498 185.336 125.646 185.641C125.793 185.947 126.048 186.177 126.355 186.282L130.911 187.862C131.063 187.915 131.224 187.935 131.384 187.922C131.544 187.908 131.7 187.861 131.842 187.783C131.985 187.705 132.112 187.598 132.216 187.468C132.319 187.338 132.398 187.187 132.447 187.025L136.646 173.01C136.743 172.685 136.776 172.343 136.741 172.004C136.707 171.665 136.606 171.338 136.446 171.043C136.288 170.744 136.19 170.413 136.159 170.072C136.128 169.73 136.166 169.385 136.268 169.06Z" fill="#2FB2B5"/>
<path opacity="0.2" d="M136.268 169.06L137.01 166.619L133.003 165.252L132.261 167.685C132.165 168.01 132.005 168.309 131.793 168.564C131.581 168.818 131.321 169.022 131.03 169.163C130.738 169.306 130.477 169.512 130.264 169.767C130.051 170.023 129.89 170.323 129.79 170.648L125.568 184.655C125.47 184.981 125.498 185.336 125.646 185.641C125.793 185.947 126.048 186.177 126.355 186.282L130.911 187.862C131.063 187.915 131.224 187.935 131.384 187.922C131.544 187.908 131.7 187.861 131.842 187.783C131.985 187.705 132.112 187.598 132.216 187.468C132.319 187.338 132.398 187.187 132.447 187.025L136.646 173.01C136.743 172.685 136.776 172.343 136.741 172.004C136.707 171.665 136.606 171.338 136.446 171.043C136.288 170.744 136.19 170.413 136.159 170.072C136.128 169.73 136.166 169.385 136.268 169.06Z" fill="black"/>
<path opacity="0.5" d="M135.63 176.391L136.646 173.026C136.743 172.701 136.775 172.358 136.741 172.02C136.706 171.681 136.606 171.354 136.446 171.059C136.285 170.758 136.186 170.424 136.155 170.08C136.125 169.735 136.163 169.388 136.268 169.06L137.01 166.619L133.003 165.252L132.261 167.685C132.164 168.01 132.005 168.309 131.793 168.564C131.58 168.818 131.32 169.022 131.029 169.163C130.737 169.305 130.476 169.51 130.262 169.766C130.049 170.022 129.888 170.322 129.79 170.648L128.773 174.013L135.63 176.391Z" fill="white"/>
<path opacity="0.6" d="M127.275 178.943L125.546 184.686C125.448 185.013 125.476 185.368 125.623 185.673C125.771 185.978 126.026 186.208 126.332 186.314L130.888 187.894C131.041 187.946 131.202 187.967 131.361 187.953C131.521 187.94 131.677 187.893 131.82 187.815C131.963 187.737 132.089 187.63 132.193 187.5C132.297 187.37 132.375 187.219 132.424 187.056L134.153 181.313L127.275 178.943Z" fill="white"/>
<path d="M137.182 165.977L133.205 164.619C132.998 164.548 132.776 164.67 132.71 164.89L132.372 166.011C132.306 166.231 132.42 166.467 132.627 166.537L136.605 167.896C136.812 167.966 137.033 167.845 137.099 167.625L137.437 166.504C137.503 166.284 137.389 166.048 137.182 165.977Z" fill="#2FB2B5"/>
<path d="M208.739 144.42L208.591 141.86L204.391 142.145L204.539 144.696C204.559 145.037 204.512 145.377 204.401 145.697C204.289 146.017 204.117 146.308 203.894 146.553C203.671 146.798 203.499 147.089 203.388 147.409C203.277 147.728 203.229 148.069 203.248 148.409L204.45 168.902C204.471 169.244 204.619 169.564 204.861 169.791C205.103 170.017 205.42 170.132 205.741 170.111L210.52 169.795C210.842 169.772 211.142 169.615 211.355 169.357C211.567 169.1 211.676 168.763 211.655 168.42L210.468 147.927C210.45 147.588 210.364 147.256 210.217 146.954C210.07 146.651 209.865 146.386 209.615 146.174C209.358 145.966 209.147 145.702 208.996 145.399C208.845 145.096 208.757 144.762 208.739 144.42Z" fill="#2FB2B5"/>
<path opacity="0.6" d="M210.832 154.358L210.453 147.927C210.435 147.588 210.349 147.256 210.202 146.954C210.055 146.651 209.85 146.386 209.6 146.174C209.346 145.965 209.138 145.7 208.989 145.397C208.841 145.094 208.755 144.761 208.739 144.42L208.591 141.86L204.391 142.145L204.539 144.696C204.559 145.037 204.512 145.377 204.401 145.697C204.289 146.017 204.117 146.308 203.894 146.553C203.671 146.798 203.499 147.089 203.388 147.409C203.277 147.728 203.229 148.069 203.248 148.409L203.627 154.84L210.832 154.358Z" fill="white"/>
<path opacity="0.6" d="M204.102 162.882L204.45 168.902C204.471 169.244 204.619 169.564 204.861 169.791C205.103 170.017 205.42 170.132 205.741 170.111L210.52 169.795C210.842 169.772 211.142 169.615 211.355 169.357C211.567 169.1 211.675 168.763 211.655 168.42L211.306 162.4L204.102 162.882Z" fill="white"/>
<path d="M208.537 141.164L204.368 141.441C204.151 141.456 203.987 141.654 204 141.885L204.069 143.06C204.083 143.291 204.269 143.466 204.486 143.452L208.656 143.174C208.872 143.16 209.037 142.961 209.023 142.73L208.954 141.555C208.941 141.324 208.754 141.149 208.537 141.164Z" fill="#2FB2B5"/>
<path d="M134.428 181.171C134.387 180.381 134.387 179.59 134.428 178.801C134.502 177.75 129.508 171.967 128.7 172.267C127.891 172.568 126.132 176.273 126.674 177.513C127.216 178.753 131.126 182.49 132.076 182.782C133.026 183.075 134.428 181.171 134.428 181.171Z" fill="#EBB376"/>
<path d="M152.05 173.508C152.05 173.508 149.824 185.437 147.405 187.838C144.986 190.24 133.886 178.019 133.886 178.019L131.704 180.507C131.704 180.507 142.634 195.865 148.496 193.242C154.357 190.619 159.025 176.699 159.025 176.699L152.05 173.508Z" fill="#EBB376"/>
<path d="M153.186 168.618L149.461 177.837L157.794 183.912L163.566 177.837L153.186 168.618Z" fill="#2FB2B5"/>
<path opacity="0.2" d="M149.461 177.845L154.395 181.439L157.794 183.912L160.591 180.965L163.559 177.845L153.186 168.618L149.461 177.845Z" fill="white"/>
<path opacity="0.2" d="M154.395 181.439L157.786 183.912L160.583 180.965C157.949 177.015 154.959 173.247 154.959 173.247C154.183 175.895 153.99 178.699 154.395 181.439Z" fill="black"/>
<path d="M186.575 166.745C186.575 166.745 194.122 175.854 197.364 176.62C200.607 177.387 204.391 160.883 204.391 160.883L207.455 161.855C207.455 161.855 205.274 180.989 198.989 181.874C192.704 182.759 182.057 173.247 182.057 173.247L186.575 166.745Z" fill="#EBB376"/>
<path d="M175.29 144.854C175.669 145.923 176.167 146.939 176.774 147.88C176.556 148.129 176.279 148.31 175.971 148.404C175.664 148.497 175.339 148.499 175.03 148.409L175.29 144.854Z" fill="#D58745"/>
<path d="M176.128 143.14C176.128 143.693 175.905 144.159 175.564 144.183C175.222 144.207 174.911 143.78 174.874 143.227C174.837 142.674 175.089 142.208 175.438 142.184C175.786 142.16 176.091 142.587 176.128 143.14Z" fill="#263238"/>
<path d="M175.29 142.2L176.388 141.647C176.388 141.647 175.891 142.721 175.29 142.2Z" fill="#263238"/>
<path d="M176.566 140.209C176.52 140.224 176.47 140.224 176.425 140.209C176.096 139.959 175.717 139.793 175.319 139.722C174.92 139.65 174.512 139.677 174.124 139.798C174.058 139.825 173.985 139.823 173.92 139.794C173.855 139.764 173.804 139.709 173.776 139.64C173.748 139.571 173.748 139.493 173.774 139.424C173.801 139.354 173.852 139.299 173.917 139.269C174.382 139.113 174.875 139.073 175.357 139.151C175.839 139.229 176.298 139.423 176.699 139.719C176.73 139.738 176.757 139.763 176.779 139.794C176.801 139.824 176.817 139.858 176.826 139.895C176.835 139.932 176.837 139.97 176.832 140.008C176.826 140.046 176.814 140.082 176.796 140.114C176.767 140.148 176.731 140.174 176.691 140.191C176.651 140.207 176.608 140.214 176.566 140.209Z" fill="#263238"/>
<path d="M175.631 146.695C174.688 146.695 173.946 145.328 173.946 143.582C173.946 141.837 174.688 140.47 175.631 140.47C176.573 140.47 177.315 141.837 177.315 143.582C177.315 145.328 176.573 146.695 175.631 146.695ZM175.631 140.865C174.889 140.865 174.317 142.105 174.317 143.582C174.317 145.06 174.918 146.3 175.631 146.3C176.343 146.3 176.944 145.052 176.944 143.582C176.944 142.113 176.336 140.865 175.631 140.865Z" fill="#263238"/>
<path d="M164.271 153.339C164.325 153.391 164.385 153.437 164.449 153.473C165.279 154.151 166.228 154.645 167.239 154.927C170.207 155.654 172.203 155.227 173.517 153.805C175.357 151.672 175.817 147.896 175.557 143.345C175.515 141.529 175.199 139.731 174.622 138.021C174.622 138.021 174.622 137.958 174.622 137.942C174.601 137.877 174.576 137.814 174.548 137.752C174.187 136.789 173.605 135.937 172.856 135.273C172.107 134.61 171.215 134.156 170.259 133.952C169.428 133.758 168.58 133.658 167.729 133.652C159.381 133.557 157.883 148.267 164.271 153.339Z" fill="#EBB376"/>
<path opacity="0.2" d="M164.464 153.473C165.302 154.111 166.25 154.564 167.254 154.808C170.222 155.527 172.218 154.998 173.531 153.552C171.768 154.02 169.91 153.859 168.241 153.094C167.625 152.849 166.966 152.755 166.311 152.821C165.657 152.887 165.025 153.11 164.464 153.473Z" fill="black"/>
<path d="M163.603 161.5C163.084 164.028 166.163 165.055 166.163 165.055C171.194 162.772 172.099 159.92 172.099 159.92C167.899 157.55 169.131 151.001 169.131 151.001L168.278 151.443L162.282 152.691C162.282 152.691 163.944 156.088 164.167 156.862C165.317 160.939 163.603 161.5 163.603 161.5Z" fill="#EBB376"/>
<path d="M174.629 137.966C174.629 137.966 175.089 144.191 169.546 146.869C169.546 146.869 167.172 153.339 163.662 153.426C158.891 153.552 154.677 146.316 156.331 138.945C158.476 129.386 172.076 128.612 174.629 137.966Z" fill="#263238"/>
<path d="M172.359 145.076C172.359 144.104 171.617 142.476 170.199 142.706C168.782 142.935 167.921 146.79 171.528 147.651C172.047 147.73 172.359 147.106 172.359 145.076Z" fill="#EBB376"/>
<path d="M164.463 131.345C164.463 131.345 170.043 129.844 173.123 132.23C176.729 135.019 178.094 137.91 173.827 142.39C173.827 142.39 164.463 139.151 161.347 139.838C159.527 140.232 157.74 140.784 156.005 141.489C155.337 134.9 161.332 130.002 164.463 131.345Z" fill="#263238"/>
<path d="M177.129 143.322H171.527C171.479 143.32 171.433 143.298 171.398 143.262C171.364 143.225 171.344 143.176 171.342 143.124C171.342 143.072 171.361 143.022 171.396 142.985C171.431 142.948 171.478 142.927 171.527 142.927H177.129C177.179 142.927 177.226 142.948 177.261 142.985C177.295 143.022 177.315 143.072 177.315 143.124C177.315 143.177 177.295 143.227 177.261 143.264C177.226 143.301 177.179 143.322 177.129 143.322Z" fill="#263238"/>
<path d="M160.316 135.09C160.316 135.09 154.543 129.971 149.683 133.692C143.688 138.25 150.366 155.93 150.766 160.37C151.167 164.81 149.141 166.785 149.141 166.785C149.141 166.785 153.593 166.887 155.226 159.359C156.858 151.83 151.827 139.222 158.253 140.707L160.316 135.09Z" fill="#263238"/>
<path d="M180.298 160.883C180.298 160.883 173.62 158.513 163.603 161.413C153.586 164.312 153.215 168.618 153.215 168.618C153.215 168.618 159.574 183.098 160.575 199.499L186.724 198.511C186.724 198.511 189.833 175.38 180.298 160.883Z" fill="#2FB2B5"/>
<path opacity="0.2" d="M153.186 168.61C153.186 168.61 159.552 183.098 160.554 199.499L186.724 198.519C187.036 195.859 187.194 193.181 187.199 190.501C187.248 186.565 187 182.631 186.457 178.737C185.589 172.67 183.786 166.192 180.291 160.883C180.291 160.883 173.613 158.513 163.596 161.413C153.579 164.312 153.186 168.61 153.186 168.61Z" fill="white"/>
<path opacity="0.2" d="M180.224 173.247C180.224 173.247 181.752 186.393 187.191 190.501C187.241 186.565 186.992 182.631 186.449 178.737L180.224 173.247Z" fill="black"/>
<path d="M180.298 160.883C188.067 164.28 193.854 171.003 193.854 171.003L187.547 179.235C187.547 179.235 184.401 178.54 182.509 176.715C176.922 171.359 180.298 160.883 180.298 160.883Z" fill="#2FB2B5"/>
<path opacity="0.2" d="M180.298 160.883C188.067 164.28 193.854 171.003 193.854 171.003L187.547 179.235C187.547 179.235 184.401 178.54 182.509 176.715C176.922 171.359 180.298 160.883 180.298 160.883Z" fill="white"/>
<path d="M204.198 161.697C204.24 160.908 204.24 160.117 204.198 159.327C204.124 158.269 209.118 152.486 209.926 152.786C210.735 153.086 212.494 156.791 211.959 158.032C211.425 159.272 207.507 163.016 206.55 163.301C205.593 163.585 204.198 161.697 204.198 161.697Z" fill="#EBB376"/>
</g>
<defs>
<filter id="filter0_d_306_22" x="18" y="0" width="379" height="403" filterUnits="userSpaceOnUse" color-interpolation-filters="sRGB">
<feFlood flood-opacity="0" result="BackgroundImageFix"/>
<feColorMatrix in="SourceAlpha" type="matrix" values="0 0 0 0 0 0 0 0 0 0 0 0 0 0 0 0 0 0 127 0" result="hardAlpha"/>
<feOffset dy="4"/>
<feGaussianBlur stdDeviation="2"/>
<feComposite in2="hardAlpha" operator="out"/>
<feColorMatrix type="matrix" values="0 0 0 0 0 0 0 0 0 0 0 0 0 0 0 0 0 0 0.25 0"/>
<feBlend mode="normal" in2="BackgroundImageFix" result="effect1_dropShadow_306_22"/>
<feBlend mode="normal" in="SourceGraphic" in2="effect1_dropShadow_306_22" result="shape"/>
</filter>
<linearGradient id="paint0_linear_306_22" x1="178" y1="242" x2="178" y2="401" gradientUnits="userSpaceOnUse">
<stop stop-color="#54C5C7"/>
<stop offset="1" stop-color="#00FFA3" stop-opacity="0.75"/>
</linearGradient>
</defs>
</svg>
